<?xml version="1.0" encoding="utf-8"?>
<!-- Generator: Adobe Illustrator 19.0.0, SVG Export Plug-In . SVG Version: 6.00 Build 0)  -->
<svg version="1.1" id="Layer_1" xmlns="http://www.w3.org/2000/svg" xmlns:xlink="http://www.w3.org/1999/xlink" x="0px" y="0px"
	 width="1400px" height="1400px" viewBox="0 0 1400 1400" enable-background="new 0 0 1400 1400" xml:space="preserve">
<g id="XMLID_1_">
	<linearGradient id="XMLID_4_" gradientUnits="userSpaceOnUse" x1="700.0001" y1="-38.2547" x2="700.0001" y2="853.2434">
		<stop  offset="0" style="stop-color:#6B42A9"/>
		<stop  offset="0.995" style="stop-color:#BEACCE"/>
	</linearGradient>
	<rect id="XMLID_202_" fill-rule="evenodd" clip-rule="evenodd" fill="url(#XMLID_4_)" width="1400" height="1400"/>
	
		<rect id="XMLID_201_" fill="none" stroke="#231916" stroke-width="0.5669" stroke-miterlimit="22.9256" width="1400" height="1400"/>
	<linearGradient id="XMLID_5_" gradientUnits="userSpaceOnUse" x1="700.0001" y1="765" x2="700.0001" y2="1559.0101">
		<stop  offset="0" style="stop-color:#6B42A9"/>
		<stop  offset="0.995" style="stop-color:#BEACCE"/>
	</linearGradient>
	<path id="XMLID_200_" fill-rule="evenodd" clip-rule="evenodd" fill="url(#XMLID_5_)" d="M0,1033.7c462.2-31.5,929.4-27.6,1400,0.2
		V1400H0V1033.7z"/>
	<linearGradient id="XMLID_6_" gradientUnits="userSpaceOnUse" x1="45.5259" y1="702.1448" x2="1400.0001" y2="702.1448">
		<stop  offset="0" style="stop-color:#6B42A9"/>
		<stop  offset="0.995" style="stop-color:#BEACCE"/>
	</linearGradient>
	<polygon id="XMLID_199_" fill-rule="evenodd" clip-rule="evenodd" fill="url(#XMLID_6_)" points="1400,859 1074.5,710.2 
		870.3,637.8 781.4,570.3 653.7,495.5 465.3,600.2 330.3,665.1 45.5,787.3 46.5,908.8 146,908.8 1400,908.8 	"/>
	<linearGradient id="XMLID_7_" gradientUnits="userSpaceOnUse" x1="0" y1="767.5071" x2="727.4418" y2="767.5071">
		<stop  offset="0" style="stop-color:#6B42A9"/>
		<stop  offset="0.995" style="stop-color:#BEACCE"/>
	</linearGradient>
	<polygon id="XMLID_198_" fill-rule="evenodd" clip-rule="evenodd" fill="url(#XMLID_7_)" points="727.4,908.8 534.3,820.6 
		349.6,755 269.1,693.9 153.2,626.3 0,711.6 0,908.8 	"/>
	<linearGradient id="XMLID_8_" gradientUnits="userSpaceOnUse" x1="634.1674" y1="766.464" x2="1400.0001" y2="766.464">
		<stop  offset="0" style="stop-color:#6B42A9"/>
		<stop  offset="0.995" style="stop-color:#BEACCE"/>
	</linearGradient>
	<polygon id="XMLID_197_" fill-rule="evenodd" clip-rule="evenodd" fill="url(#XMLID_8_)" points="1400,726.3 1383,718.9 
		1212.9,624.2 1097,691.8 1016.5,752.9 831.7,818.5 634.2,908.8 1400,908.8 	"/>
	<linearGradient id="XMLID_9_" gradientUnits="userSpaceOnUse" x1="700.0001" y1="843.8335" x2="700.0001" y2="459.2212">
		<stop  offset="0" style="stop-color:#6B42A9"/>
		<stop  offset="0.995" style="stop-color:#BEACCE"/>
	</linearGradient>
	<path id="XMLID_203_" fill-rule="evenodd" clip-rule="evenodd" fill="url(#XMLID_9_)" d="M650.4,875c-0.7-0.5-1.5-1-2.2-1.5
		c-0.1-0.1-0.3-0.2-0.4-0.3c0-0.4-0.2-0.7-0.7-0.9c-0.2-0.5,0.3-0.9,1.5-1.7c2-1.4,3.7-2.8,5.4-4.4c-0.3,1.1-0.6,2.1-0.9,3.2
		C652.5,871.2,651.8,873.1,650.4,875 M460.3,867.3L460.3,867.3c0-0.2,0.1-0.4,0.1-0.6c0.4-1,0.7-1.9,0.9-2.9
		c0.1,0.3,0.2,0.6,0.4,0.9c0.3,0.3-0.3,1-0.6,1.6C460.8,866.7,460.6,867,460.3,867.3z M799.5,947.3c-0.6-1-2.3-2.3-1.5-3.7h3.7
		c-0.4,0.6-0.9,1.1-1.5,1.6C799.9,945.6,799.6,946.5,799.5,947.3z M870,944.3c-0.1-0.2-0.3-0.5-0.4-0.7h2.4
		C871.5,944.2,870.9,944.5,870,944.3z M835.3,952.5c-0.8-1-1.4-2.1,0.7-3.7c0.3-0.3,0-2.9-0.6-3.9c-0.4-0.4-0.8-0.9-1.1-1.3h4.6
		c-0.2,1.5-0.4,3-0.5,4.5c-0.3,1.6-0.6,3.2-2.6,4.2C835.5,952.4,835.4,952.5,835.3,952.5z M257.8,909.4
		C257.8,909.4,257.7,909.5,257.8,909.4c8.5-1.1,16.9-2.3,25.4-3.6c3.7-0.5,7.3-1,10.9-1.6c15.5-2.2,31-4.3,46.3-5.7
		c-0.6,0-1.3,0.1-1.9,0.1c0,0.1-0.1,0.3-0.1,0.5c-0.3,1.3,1,2.3,2.6,2.3c3.3-0.3,5.7-1.5,6.9-3.5c9.9-0.9,20-1.8,30-2.4
		c-0.1-0.1-0.1-0.2-0.2-0.2c3.2-0.3,6.5-0.5,9.7-0.7c0,0.1,0.1,0.2,0.2,0.3c8.5-0.9,17.5-1.5,26.6-2.1v0.1c1.8-0.2,3.6-0.3,5.5-0.5
		c1.7-0.1,3.3-0.2,5-0.3l7-0.3c0,0,0,0.1,0,0.1c1.3-0.1,2.6-0.2,3.9-0.3l6.9-0.3l1.1,0l0-0.1c2.3-0.1,4.5-0.2,6.8-0.3v0
		c3.3-0.1,6.7-0.2,10.1-0.3l0,0l0.4,0c4.3-0.1,8.7-0.3,13-0.4c22.4-0.5,44.8-0.5,67.1,0.1c5.4,0.1,10.7,0.3,16.1,0.5
		c7.2,0.3,14.4,0.7,21.5,1.1l0,0c6.7,0.4,13.4,0.8,20.1,1.3c0,0,0,0,0,0c4.5,0.3,8.8,0.6,13.3,1l0-0.1c14.3,1,28.5,2.2,42.9,3.3l0,0
		c10.7,0.9,21.7,1.9,32.4,2.5l0,0.1l39.9,51.8c0,0,0,0.1,0,0.1h1.9h3.6c2.7,0.2,5.4,0.4,8.1,0.5c-0.1,0.3-0.2,0.5-0.3,0.8
		c1.1-0.4,2.5-0.5,4.1-0.5c1.4,0.1,2.7,0.2,4,0.2c3.2,0.2,6.5,0.3,9.7,0.3l0,0c0.6,0,1.3,0,1.9,0c6,0.2,12,0.3,17.9,0.3v-0.1
		c6.9,0,13.9,0.1,20.8,0.1l0,0h2.3h0.1h0.5h0.2h0.3h0.4h0.2h0.5h20.1c-0.2,0.3-0.4,0.6-0.6,1c35,0,81.3-6.7,115.3,2.7
		c13.3-0.3,26.3,0,39.2,1c0.4-0.3,0.8-0.6,1.1-0.9c0.5,0,0.9,0.1,1.4,0.1c8.3,0.7,21.6,34,29.8,35l30,22.8
		c14.2,1.7-17.6-61.2-3.5-59.3l0-0.1c3.5,0.5,6.9,0.9,10.4,1.3c0.4,0.1,0.7,0.2,1.1,0.3c0,0.1-0.1,0.2-0.1,0.4
		c0.3-0.1,0.5-0.2,0.8-0.2c0.4,0.1,0.7,0.1,1.1,0.2c4.9,0.6,9.7-29.7,14.9-29.1c0,0-0.1-0.1-0.1-0.1c7.6,0.9,15.2,1.8,22.9,2.7v-0.3
		l2.2,0.3c-0.1,0-0.1,0-0.2,0.1c18,2.2,36,4.4,53.9,6.6c9.4,1.2,18.9,2.5,28.4,3.8l0-0.1c1,0.1,2,0.3,3,0.4c0.1,0.2,0.3,0.4,0.3,0.4
		c8,1.1,16.3,2.2,24.6,3.3c24.2,3.7,48.3,7.9,72,13c7.1,1.6,14.1,3.4,21.2,5.3c0.2,0.1,0.4,0.1,0.5,0.2c12,4.1,25,6.9,37.9,10
		c7.4,2.5,14.8,5.3,22.4,6.6c4.2,0.8,9.5,2.9,14.8,5c5.7,2.5,11.2,5.4,16.3,9c1.3-1.6,2.5-3.3,3.8-5c0.2-0.1,0.3-0.1,0.4-0.2
		c4.2-2,7.8-6.5,11.1-11.8v-53.2c-3.1-2.3-6.2-3.9-8.8-4c-9.4-0.3-18.5-2.9-27.2-4.2c-16.2-2.3-15.9,0.3-13.6-13.9
		c-1.3,0.3-9.7,1.6-9.4-1c0.3-0.6,0.6-1.6,1.6-1.9c2.3-1,2.6-2.3,2.3-4.2c-0.6-2.3-1-4.9,1.3-6.8c0.3-0.3,0-1.3-0.3-1.6
		c-0.3-0.3-1.3-0.6-1.9-0.6c-0.6,0-1.6,0-2.3,0c-1.3,0-2.3-0.3-2.3-1.6c0-1,0-2.3,0-3.2c-0.3-2.6-1.6-5.2-4.9-7.1
		c-1-0.6-1.9-0.6-2.6,0c-0.6,1-1.3,1.9-1.9,2.9c-1.9,2.9-3.9,5.5-8.8,5.5c-2.3,0-2.6,0.6-2.9,2.3c0,1.3,0,2.3,0,3.6
		c0,1.6-0.3,2.6-2.3,3.2c-0.6,0.3-1.3,0.6-1.6,1c-0.1,0.2-0.2,0.3-0.3,0.5V892c-0.3-2.6-1.6-5.2-4.9-7.1c-1-0.6-1.9-0.6-2.6,0
		c-0.6,1-1.3,1.9-1.9,2.9c-1.9,2.9-3.9,5.5-8.8,5.5c-2.3,0-2.6,0.6-2.9,2.3c0,1.3,0,2.3,0,3.6c0,1.6-0.3,2.5-2.1,3.2
		c-8.3-7.1-7.1-11-20.2-10.7c-5.5,0-12.6,6.2-16.2,5.8c-5.8-0.3-11-2.9-16.2-6.5c-0.2-0.1-0.3-0.3-0.5-0.4c-0.1-1.1-0.3-2.3-0.5-3.5
		c0-1-1-1.9-1.3-2.9c-0.3,0-0.3,0-0.6,0c-0.3,1-1,2.3-1.3,3.2l0,0c-6.3-5.7-11.6-12.6-15.6-18.2c1.6-1.3,4.2-4.5,3.6-6.8
		c-0.6-2.3-1-4.9,1.3-6.8c0.3-0.3,0-1.3-0.3-1.6c-0.3-0.3-1.3-0.6-1.9-0.6c-0.6,0-1.6,0-2.3,0c-1.3,0-2.3-0.3-2.3-1.3
		c0-1,0-2.3-0.3-3.2c-0.3-2.6-1.9-5.2-5.2-6.8c-1-0.6-1.9-0.6-2.6,0c-0.6,1-1.3,1.9-1.9,2.9c-1.9,2.9-3.6,5.5-8.8,5.8
		c-2.3,0-2.6,0.6-2.6,2.3c0,1.3,0,2.3,0.3,3.6c0.3,1.6-0.3,2.6-2.3,3.2c-0.6,0.3-1.3,0.6-1.6,1c-1,1.6-1.9,3.2-2.9,4.9
		c-0.6,1.3-1.3,2.3-2.9,2.9c-2.3,1-4.9,1.6-7.5,2.3c-1.6,0.3-1.6,1-1.6,1.9c0,2.9,1.6,5.5,3.6,8.1c1.6,1.9,1.6,2.3-1,3.2
		c-0.3,0-0.6,0.3-1,0.3c-2.3,0.3-4.2,0.6-6.5,1c-1,0-1.9,0.3-1.9,1.3c0,1.3-0.3,2.6,0.3,3.9c0.6,1.6,1.6,3.2,2.6,4.9
		c0.6,1.3,1.3,2.3,0.3,3.6c-1.6,2.6-4.5,4.5-7.1,6.5c-0.3,0.3-1.3,0-1.3,0c-0.8-0.7-1.5-1.4-2.2-2.1c0.6-1.2,1.3-2.2,1.9-3.5
		c0.3-0.6-0.3-1.6-1-1.9c-1.6-0.6-1.6-1.6-1.6-2.6c0.3-1.6,0.6-3.2,0.6-4.9s-1.9-3.6-3.9-3.9c-0.3-0.1-0.7-0.1-1,0
		c0-1.2-0.1-2.3-0.3-3.5c0-0.3-1-1-1.3-1.3c-0.3,0.3-1,0.6-1.3,1c-1,1.9-1.6,3.9-2.6,5.5c-1,2.3-2.3,4.5-3.6,6.8c-0.3,0.3-1,1-1.6,1
		c-0.6,0-1.6-0.6-1.6-1.3c-0.6-1.3-0.6-2.6-1-3.9c-0.3-1-0.3-2.3-1.9-2.9c-0.3,0.6-0.6,1.2-0.8,1.7c-1.5-2.2-2.1-4.4-1.5-6.9
		c0.3-1.6,0.6-3.2,0.6-4.9c0-1.3,0-2.6-1.3-3.9c-0.3,0.3-0.3,0.3-0.3,0.3c-1.6,3.9-3.6,7.8-5.2,11.7c-0.9,1.8-1.8,3.7-2.5,5.5
		c-0.9-1.3-1.7-2.7-2.6-3.9c-1.3-1.6-3.2-2.3-5.2-0.6c-0.3,0-0.3,0.3-0.6,0.3c-1.6,1-3.2,0.6-3.6-1c-0.6-1.6-0.6-3.2-1-5.2
		c-0.6-2.6-0.3-5.5-1.6-8.1c-1-2.9-1.3-5.5-1.3-8.4c0-2.3-0.3-4.2-0.6-6.5c-0.3-1-1-1.9-1.3-2.9c-0.3,0-0.3,0-0.6,0
		c-0.3,1-0.6,2.3-1,3.2c-0.6,1.9-1.3,4.2-1.9,6.2c-1,2.6-1.9,5.2-3.2,7.8c-1,2.6-2.3,5.2-3.2,7.8c-1,2.9-1.9,5.8-2.6,8.8
		c-0.3,1.6-1.3,3.2-3.2,3.9c-1.3,0.6-2.6,0.3-3.2-1c-0.6-1-1-1.9-1-2.9c-0.3-3.6-0.6-7.1-1.3-10.7c-0.3-1,0-2.3-1.6-3.6
		c-0.3,0.3-0.3,0.6-0.6,1c-0.6,3.2-1.3,6.5-2.3,9.7c-0.6,1.9-1.3,3.9-2.3,5.5c-0.6,1-1.6,1.9-1.9,3.2c-1,2.3-1.6,4.9-2.9,7.1
		c-0.6,1.6-1.9,2.9-4.5,3.2c0-0.6,0-1,0-1.3c0-2.3-1-4.2-3.6-5.8c-1-0.6-1-1-0.6-1.6c1.9-2.9,1.6-6.5-1.3-9.1
		c-1.6-1.3-3.6-1.6-4.9,0c-1,1-1.3,1.9-1.9,2.9c-0.6,1.3-1.3,2.9-2.3,4.2c-0.6,0.6-1.6,1.3-2.9,1.3c-1.3,0-2.3-0.6-2.6-1.6
		c-0.6-1-1-2.3-1.3-3.2c-0.3-2.3-0.3-4.5-1-6.8c0-1-0.6-1.9-1.3-2.6c-1.6,0.6-2.6,1.3-2.6,2.3c-0.3,1.3-0.3,2.6-1,3.9
		c-0.6,2.3-1.3,4.9-2.6,7.1c-1,1.6-2.6,3.2-5.2,3.6c-1.3,0.3-2.3-0.3-3.2-1c-0.6-0.6-1-1.3-0.6-2.3c1.6-2.9,2.6-6.2,2.6-9.4
		c0-1.3-0.3-2.9-1.6-3.9c-1-0.6-1-1.3-0.3-2.3c0.3-0.6,1-1.3,1.3-1.9c0.6-1.3,1.3-2.3,1.6-3.6c0.3-0.6-0.3-1.6-1.3-1.9
		c-1.6-0.6-1.9-1.6-1.6-2.6c0.3-1.6,0.6-3.2,0.6-4.9c0-1.6-1.9-3.6-4.2-3.9c-1.6-0.3-2.9,0.6-3.6,2.6c0,0,0,0,0,0.3
		c-0.6,3.6-2.3,6.8-4.2,10.1c-1,1.3-1.6,2.9-2.9,4.2c-0.6,1-1.9,1-2.6-0.3c-0.3-0.3-0.6-0.6-0.6-1c-0.3-1.9-1-3.6-1-5.5
		c0-2.3-0.6-4.2-2.3-6.2c-1.6-2.3-2.3-4.5-1.9-7.1c0.3-1.6,0.6-3.2,0.3-4.9c0-1.3,0-2.6-1.6-3.9c-0.3,0.3-0.3,0.3-0.3,0.3
		c-1.6,3.9-3.2,8.1-4.9,12c-1.3,2.9-2.3,5.5-3.6,8.4c-1,2.3-1.6,4.9-2.3,7.1c-0.5,1.5-0.8,2.8-1.7,4.1c0-0.2,0-0.3,0-0.5
		c0.3-2.3-0.3-4.2-1.3-6.2c-1-2.3-1.6-4.5,0.3-6.5c0.3-0.3,0.3-1,0.3-1.3c-0.3-1.6-0.3-3.2-1-4.9c-1-2.9-2.3-5.5-1.3-8.4
		c0-0.3,0-0.6,0-0.6c-0.3-0.3-0.6-1-1.3-1c-0.3,0-1,0.3-1.3,0.3c-0.3,0.3-0.6,1-0.6,1.6c0.3,3.9-1.9,7.1-3.9,10.4
		c-1.6,2.6-2.9,5.2-2.9,8.1c0,0.3-0.3,1-0.6,1.3c-0.3,0.3-0.6,0.6-1,0.6c-0.3,0-1-0.3-1-0.6c-0.6-1-1-2.3-1.6-3.6
		c-0.3,0.3-1,0.3-1,0.6c-0.6,1-1,1.9-1.3,2.9c-1.3,3.6-1.9,7.5-4.2,11c-0.3,0.3-0.3,0.6-0.3,1c-0.5,1.2-1,2.3-1.6,3.4
		c-0.1-1-0.5-1.9-0.9-2.8c0.1-0.9,0-1.7-0.4-2.6h-0.6c-0.5-1.7-0.5-3.4,0.9-4.9c0.3-0.3,0.3-1,0.3-1.3c-0.3-1.6-0.3-3.2-1-4.9
		c-1-2.9-2.3-5.5-1.3-8.4c0-0.3,0-0.6,0-0.6c-0.3-0.3-0.6-1-1.3-1c-1.5-0.5-4.5,10.1-6.9,16.3c-1.6,0.5-3.3,0.7-5.1,0.2
		c-2.9-0.6-3.9-3.6-1.9-5.2c1.3-1.3,2.3-2.3,3.2-3.6c1.3-1.9,1.9-3.9,1.9-6.2c-0.3-1.9-1.3-2.3-3.2-1.3c-1,0.6-2.3,1.3-3.2,1.6
		c-1.6,0.6-2.9,0-2.9-1.3c0-0.6,0.6-1.6,1.3-2.3c1.9-1.3,2.3-2.9,1.6-4.5c-1-2.3-1.6-4.5,0.3-7.1c0.3-0.3,0-1.3-0.6-1.6
		c-0.3-0.3-1.3-0.3-1.9-0.3c-0.6,0-1.6,0.3-2.3,0.3c-1.3,0.3-2.3,0-2.6-1c-0.3-1-0.3-2.3-0.6-3.2c-1-2.6-2.6-4.9-5.8-6.2
		c-1-0.3-1.9-0.3-2.6,0.6c-2.3,3.9-2.9,6.2-6.5,8.8c-3.9,2.9-4.2,0-4.9,5.5c-0.6,5.5,1.6,9.7-4.5,13.6c-5.2,3.2-12,1.3-17.2,3.2
		c-2.9,1.1-4.3,3.2-5.4,5.6c-5.6-2.5-16.1-4.7-21.9-5.9c-4.2-1-9.1-0.3-12.3-4.2c-4.2,3.2-8.4-1.3-13-1.9
		c-6.8-0.6-15.6,4.9-20.8-1.9c-1.3-1.6-2.6-3.6-2.9-5.2c0-0.6-0.6-1.6-1-2.3c0-0.3-1-0.3-1.6-0.6c-0.3,0.3-1,0.3-1.3,0.6
		c-0.6,1-1.3,1.9-1.9,3.2c-0.6,1.3-1.6,2.6-2.6,3.9c-0.1,0.1-0.3,0.3-0.5,0.4c-0.5-0.7-1.2-1.4-1.7-2c-0.5-0.5-1.4-0.3-2.4-0.1
		c-0.1-0.1-0.1-0.1-0.2-0.2c-0.3-0.6-0.3-1-2.3-1.3c-0.6,1-1,1.9-1.6,2.9c-0.3,0.3-0.6,1-1.3,1.3c-1,0.6-2.3,0.6-3.6,0.3
		c-1-0.3-1.6-1-2.6-1.3c-1.3-1-2.6-1.6-4.2-2.6c-1.6-0.6-3.6-1-5.2,0c0,0-0.3,0.3-0.6,0.3c-1.3,0.6-3.2,0.6-3.9-0.3
		c-0.6-1-1.3-1.6-1.9-2.6c-1-1.3-1.3-2.9-2.6-4.2c-1.6-1.3-1.9-2.9-2.6-4.2c-0.3-1-1-2.3-1.6-3.2c-0.3-0.6-1.3-1-1.9-1.3
		c-0.3,0-0.3,0-0.6,0c-0.3,0.6-0.3,1.3-0.6,1.9c-0.3,1.3-0.6,2.3-1.3,3.6c-0.6,1.6-1.3,2.9-1.9,4.5c-0.6,1.3-1.6,2.9-1.9,4.2
		c-0.6,1.6-1,3.2-1.3,4.9c-0.3,1-0.6,1.6-2.6,2.3c-1.3,0.3-2.6,0.3-3.2-0.3c-0.6-0.3-1-1-1.3-1.3c-1-1.9-1.6-3.6-2.6-5.5
		c-0.3-0.6-0.3-1.3-1.9-1.6c0,0.3-0.3,0.3-0.3,0.6c-0.3,1.6-0.6,3.6-1,5.2c-0.3,1-1,1.9-1.3,3.2c-0.3,0.6-1.3,1.3-1.6,1.6
		c-0.6,1.3-1,2.6-1.9,3.9c-0.5,0.8-1.2,1.3-2.7,1.7c-1.8-2.2-5.3-3.3-4.1-7.5c0.3-1.3-1.3-3.2-2.6-4.5c-0.6-0.6-2.3,0-3.6,0
		c0,1.2-0.9,2.1-1.5,3.1c-0.7,0.1-1.3,0.3-1.7,0.8c-0.6,0.6-1,1-1.6,1.6c-0.6,0.6-1,1.6-1.9,2.3c-0.3,0.3-1.6,0.6-2.6,1
		c-1.3,0.3-2.3-0.3-2.9-0.6c-0.6-0.6-1.3-1-1.6-1.6c-0.6-1.3-1-2.3-1.6-3.6c-0.3-0.3-1-1-1.6-1.3c-1.6,0.3-2.3,1-2.3,1.3
		c-0.3,0.6,0,1.3-0.3,1.9c-0.3,1.3-0.6,2.6-1.6,3.9c-0.5,0.7-1.4,1.4-2.7,1.8c-0.2-1.3-1.2-2.6-1.9-4.1c-0.7-1.2-2-2-3-3
		c-0.1-0.2-0.3-0.3-0.5-0.5c-0.6-0.7-1.1-1.4-1.2-2.4c0.2-0.2,0.4-0.4,0.5-0.7c0.3-0.6,1-1.3,1.3-1.9c0.3-0.3-0.3-0.6-1.3-1
		c-0.2,0-0.4-0.1-0.5-0.1c-0.3-0.7-0.8-1.4-1.4-2.1v-1.7c0-1-2.3-1.6-4.5-1.6c-1.6,0-2.9,0.6-3.2,1.6l0,0c-0.3,1.9-1.3,3.9-2.6,5.5
		c-0.6,0.6-1.3,1.6-2.3,2.3c-0.6,0.6-1.6,0.6-2.6,0c-0.3,0-0.6-0.3-0.6-0.6c-0.6-1-1.3-1.9-1.6-2.9c-0.3-1.3-1.3-2.3-2.9-3.2
		c-1.9-1-2.9-2.3-2.9-3.6c0-1,0-1.6-0.3-2.6c-0.3-0.6-0.3-1.3-1.9-1.9l-0.3,0.3c-1,2.3-2.3,4.5-3.2,6.5c-0.6,1.6-1.6,2.9-2.3,4.5
		c-0.6,1.3-1,2.6-1.3,3.9c-0.3,1-0.6,1.9-1.9,2.9c-0.5,0.3-1,0.5-1.8,0.6c-0.4-0.6-0.9-1.1-1.4-1.6c-0.3-0.3-1-0.3-1.7-0.2
		c-0.4-1-0.7-1.9-1.2-2.7c-0.3-1-1.3-1.6-1.9-2.6c-0.3-0.3-1.3-0.3-1.9-0.6c-0.3,0.3-1,0.6-1,1c-0.3,1.6,0,2.9-0.3,4.5
		c-0.3,1-0.6,2.3-1,3.2c0,0.3-0.6,0.6-1,0.3c-0.6,0-1.3-0.3-1.6-0.3c-0.6-0.6-1.3-1.3-1.9-1.6c-0.3-0.3-0.6-0.6-0.9-1
		c0.4-1,0.6-2.1,0.6-3.3c0-1-0.3-1.6-1.6-1.9c-1.9-0.3-3.6-1-5.5-1c-3.9-0.6-6.2-3.9-4.9-6.2c1-1.6,2.6-2.9,4.5-3.9
		c2.9-1.3,4.9-3.2,6.2-5.5c0.6-1.3,0.6-2.6,0-3.9c-0.3,0-0.6,0-1,0c-3.6,1-5.2,0-4.9-2.9c0-0.6,0.3-1.6,0.3-2.3c0-0.3-0.3-1-0.6-1.3
		c-0.3,0.3-1,0.3-1.3,0.6c-2.3,1.3-4.9,1.9-7.5,1.3c-2.9-0.6-3.9-3.6-1.9-5.2c1.3-1.3,2.3-2.3,3.2-3.6c1.3-1.9,1.9-3.9,1.9-6.2
		c-0.3-1.9-1.3-2.3-3.2-1.3c-1,0.6-2.3,1.3-3.2,1.6c-1.6,0.6-2.9,0-2.9-1.3c0-0.6,0.6-1.6,1.3-2.3c1.9-1.3,2.3-2.9,1.6-4.5
		c-1-2.3-1.6-4.5,0.3-7.1c0.3-0.3,0-1.3-0.6-1.6c-0.3-0.3-1.3-0.3-1.9-0.3c-0.6,0-1.6,0.3-2.3,0.3c-1.3,0.3-2.3,0-2.6-1
		c-0.3-1-0.3-2.3-0.6-3.2c-1-2.6-2.6-4.9-5.8-6.2c-1-0.3-1.9-0.3-2.6,0.6c-0.6,1-1,1.9-1.3,3.2c-1.3,2.9-2.9,6.2-7.8,6.8
		c-2.3,0.3-2.6,1-2.3,2.6c0.3,1.3,0.3,2.3,0.6,3.6c0.3,1.6,0,2.6-1.6,3.6c-0.6,0.3-1,0.6-1.3,1.3c-1,1.6-1.6,3.2-2.3,5.2
		c-0.6,1.3-1,2.6-2.3,3.2c-2.3,1.3-4.5,2.3-7.1,3.2c-1.3,0.3-1.6,1-1.6,1.9c0.3,2.9,2.3,5.2,4.5,7.5c1.9,1.6,1.6,1.9-0.6,3.2
		c-0.3,0-0.6,0.3-1,0.3c-1.9,0.6-4.2,1.3-6.2,1.9c-1,0.3-1.9,0.6-1.9,1.6c0,1.3,0.3,2.6,0.6,3.9c1,1.6,2.3,2.9,3.2,4.5
		c0.6,1,1.6,2.3,1,3.6c-1.3,2.9-3.9,5.2-6.2,7.5c-0.3,0.3-1.3,0.3-1.3,0.3c-2.6-1.9-5.5-3.9-6.8-6.8c-1.3-3.2-2.6-6.5-2.9-10.1
		c0-1.6-0.6-2.9-1-4.5c0-0.3-1-0.6-1.6-1c-0.3,0.3-1,0.6-1.3,1.3c-0.6,1.9-1.3,3.9-1.9,5.8c-0.6,2.6-1.6,4.9-2.6,7.1
		c-0.3,0.3-1,1-1.3,1c-0.6,0-1.6-0.6-1.9-1c-0.6-1.3-1-2.6-1.6-3.9c-0.3-1-0.3-2.3-2.3-2.6c-0.6,1.9-1,3.9-1.6,5.5
		c-0.2,0.5-0.3,0.9-0.5,1.4c-0.7,0.1-1.4,0.3-2.1,0.3c0,0.7-0.3,1.4-0.7,2c-0.5-0.1-1-0.3-1.5-0.7c-1-0.6-1.6-1.6-2.6-2.3
		c-1.3-1.6-2.6-3.2-4.2-4.9c-1.6-1.3-3.6-1.9-5.2,0c0,0.2-0.2,0.3-0.4,0.5c-0.2-0.4-0.2-0.7-0.2-1.1V845c-0.3-0.3-0.6-0.3-1.3-0.3
		c-0.3,0-1,0.3-1.3,0.3c-0.3,0.3-0.6,0.6-0.3,1c0.2,0.5,0.3,0.9,0.3,1.4c-0.5-0.2-1-0.5-1.3-1c-0.6-1.6-1.3-3.2-1.9-4.9
		c-1-2.6-1.3-5.2-2.6-7.8c-1.6-2.6-1.9-5.5-2.6-8.1c-0.3-1.9-1-4.2-1.6-6.2c-0.3-1-1.3-1.6-1.9-2.6c-0.3,0-0.3,0-0.6,0
		c-0.3,1.3-0.3,2.3-0.6,3.6c-0.3,2.3-0.6,4.2-1.3,6.5c-0.6,2.9-1.3,5.5-1.9,8.4c-0.6,2.6-1.6,5.5-1.9,8.1c-0.6,2.9-1,5.8-1.3,8.8
		c-0.3,1.6-0.6,3.2-2.6,4.2c-1.3,0.6-2.6,0.6-3.2-0.3c-0.6-1-1-1.6-1.3-2.6c-1-3.6-1.6-7.1-2.6-10.4c-0.3-1-0.3-2.3-1.9-3.2
		c0,0.6-0.3,1-0.3,1.3c-0.3,3.2-0.6,6.8-1,10.1c-0.1,0.5-0.2,1.1-0.3,1.6c-0.8,1.6-2.6,2.8-1.3,4.9c0,0,0,0.1,0.1,0.1
		c-0.3,0.8-0.9,1.4-1.2,2.1c-1.4,1.6-3.1,3.2-4.3,4.9c0-0.6,0-1.2,0.2-1.9c0.3-1.3-1.3-3.2-2.6-4.5c-0.6-0.6-2.3,0-3.6,0
		c0,0.4-0.1,0.8-0.3,1.1c-0.3-1.9-1.4-3.6-3.3-4.7c-1.9-1.3-3.6-1-4.5,0.6c-0.6,1-1,2.3-1.6,3.2c-0.4,1-0.7,1.9-1.1,2.8
		c-1.3-1.2-2.2-2.6-1.5-5.1c0.3-1.3-1.3-3.2-2.6-4.5c-0.6-0.6-2.3,0-3.6,0c0,1.3-1,2.2-1.6,3.2c-0.1-0.4-0.2-0.9-0.3-1.3
		c-0.3-1-1-1.6-1.6-2.6c-1.6,0.6-2.3,1.6-2.3,2.6c-0.3,1.3,0,2.6-0.3,3.9c-0.2,1.9-0.5,3.6-0.9,5.3c0.1-1.3-1.4-3.1-2.6-4.4
		c-0.6-0.6-2.3,0-3.6,0c0,1.3-1.1,2.3-1.7,3.4c0.2-1.7,0.2-3.3,0.1-5c-0.3-1.3-0.6-2.6-2.3-3.6c-1-0.6-1-1.3-0.6-1.9
		c0.3-0.6,1-1.6,1.3-2.3c0.3-1.3,1-2.6,1.3-3.9c0.3-1-0.3-1.6-1.3-1.6c-1.6-0.3-1.9-1.3-1.9-2.3c0-1.6,0-3.2,0-4.9s-2.3-3.2-4.5-3.2
		c-1.6,0-2.9,1-3.2,2.9c0,0,0,0,0,0.3c-0.3,3.6-1.3,7.1-2.6,10.4c-0.6,1.6-1.3,2.9-2.3,4.5c-0.6,1-1.6,1-2.6,0.3
		c-0.3-0.3-0.6-0.6-0.6-1c-0.6-1.6-1.3-3.6-1.6-5.5c-0.3-2.3-1.3-4.2-2.9-5.8c-1.9-1.9-2.9-4.2-2.9-6.8c0-1.6,0-3.2-0.3-4.9
		c-0.3-1.3-0.3-2.6-1.9-3.6c0,0.3-0.3,0.3-0.3,0.6c-1,4.2-2.3,8.4-3.2,12.6c-0.6,2.9-1.6,5.8-2.3,8.8c-0.6,2.6-1,4.9-1.3,7.5
		c-0.3,1.9-0.6,3.9-1.9,5.5c-0.6,0.6-1.3,1.3-2.6,1c-0.6-0.3-1.6-1-1.9-1.6c-0.6-2.3-1-4.5-1.6-6.8c-0.3-1.6-1.3-3.2-1.9-4.9
		c-0.3-0.6-1.3-1-1.9-1.3c-0.3,0.6-1,1.3-1,1.9c-0.3,2.9,0,5.5-0.3,8.4c-0.3,1.9-0.6,4.2-1,6.2c0,0.3-0.6,1-1,1
		c-0.6,0-1.3-0.3-1.6-0.6c-0.6-1-1.3-2.3-1.9-3.2c-0.6-1.3-1-2.6-2.9-3.2c0,0.3-0.3,0.6-0.3,1c-0.4,3-0.8,6-1.3,8.9
		c-0.6,0.1-1.1,0.2-1.7,0.2c0,2.3-3.2,3.6-1.6,6.2c0.1,0.1,0.1,0.1,0.1,0.2c-0.8-0.1-1.6-0.1-2.4-0.2c-0.2,0-0.4,0-0.6,0
		c0-0.1,0-0.2,0-0.3c2.6-2.9,0.6-4.9-0.6-7.5c-1.6-2.6-5.8-3.6-4.5-8.1c0.3-1.3-1.3-3.2-2.6-4.5c-0.6-0.6-2.3,0-3.6,0
		c0,2.3-3.2,3.6-1.6,6.2c0.3,0.3-0.3,1-0.6,1.6c-0.5,0.6-1,1.1-1.5,1.7c-1.4-1.2-2.4-2.7-1.7-5.3c0.3-1.3-1.3-3.2-2.6-4.5
		c-0.6-0.6-2.3,0-3.6,0c0,2.3-3.2,3.6-1.6,6.2c0.3,0.3-0.3,1-0.6,1.6c-0.3,0.3-0.6,0.7-0.9,1c-0.7-0.2-1.3-0.4-2-0.4
		c-0.1,0-0.3,0-0.4,0.1c-0.1-3.3-2.2-5.6-5.4-7.2c-0.3,0-0.3-0.3-0.3-0.6c2.6-2.9,0.6-4.9-0.6-7.5c-1.6-2.6-5.8-3.6-4.5-8.1
		c0.3-1.3-1.3-3.2-2.6-4.5c-0.6-0.6-2.3,0-3.6,0c0,2.3-3.2,3.6-1.6,6.2c0.3,0.3-0.3,1-0.6,1.6c-1.6,1.9-3.9,3.9-5.2,6.2
		c-1.3,1.9-2.3,4.5,0.3,6.5c-1.6,1.3-3.2,2.3-4.5,3.6c-0.6,1-1.3,2.3-1.3,3.6c0.3,1.8,0.5,3.6,0.3,5.3c-0.8-1-1.6-2-2-3
		c-0.6-1.3-3.2-2.9-0.6-4.9c0.3-0.3,0-2.9-0.6-3.9c-2.3-2.3-3.2-4.5-2.6-7.8c1-4.5-1.3-7.5-5.2-9.4c-0.3,0-0.3-0.3-0.3-0.6
		c2.6-2.9,0.6-4.9-0.6-7.5c-1.6-2.6-5.8-3.6-4.5-8.1c0.3-1.3-1.3-3.2-2.6-4.5c-0.6-0.6-2.3,0-3.6,0c0,2.3-3.2,3.6-1.6,6.2
		c0.3,0.3-0.3,1-0.6,1.6c-1.6,1.9-3.9,3.9-5.2,6.2c-1.3,1.9-2.3,4.5,0.3,6.5c-1.6,1.3-3.2,2.3-4.5,3.6c-0.6,1-1.3,2.3-1.3,3.6
		c0.6,3.9,1,7.8-2.6,10.7c-0.1,0.1-0.2,0.3-0.3,0.5c0-0.2,0-0.3,0-0.5c0-2.3-1-4.2-2.3-5.8c-1.3-1.9-2.3-4.2-0.6-6.5
		c0.3-0.3,0.3-1,0.3-1.3c-0.6-1.6-1-3.2-1.9-4.5c-1.3-2.6-2.9-5.2-2.9-8.1c0-0.3,0-0.6,0-0.6c-0.3-0.3-0.6-1-1.3-1
		c-0.3,0-1,0.3-1.3,0.6c-0.3,0.3-0.6,1-0.3,1.6c1,3.9-0.6,7.5-1.9,11c-1,2.6-1.9,5.5-1.6,8.4c0,0.3,0,1-0.3,1.3c0,0.3-0.6,0.6-1,0.6
		c-0.3,0-1-0.3-1-0.6c-0.6-1-1.3-1.9-1.9-3.2c-0.3,0.3-1,0.6-1,1l-0.9,2.8c-0.3-0.2-0.7-0.4-1-0.5c-0.3,0-0.3-0.3-0.3-0.6
		c2.6-2.9,0.6-4.9-0.6-7.5c-1.6-2.6-5.8-3.6-4.5-8.1c0.3-1.3-1.3-3.2-2.6-4.5c-0.6-0.6-2.3,0-3.6,0c0,2.3-3.2,3.6-1.6,6.2
		c0.3,0.3-0.3,1-0.6,1.6c-1.6,1.9-3.9,3.9-5.2,6.2c-0.8,1.2-1.5,2.8-1.2,4.2c-2,0.9-4.1,1.2-6.2,0.7c-2.9-0.6-3.9-3.6-1.9-5.2
		c1.3-1.3,2.3-2.3,3.2-3.6c1.3-1.9,1.9-3.9,1.9-6.2c-0.3-1.9-1.3-2.3-3.2-1.3c-1,0.6-2.3,1.3-3.2,1.6c-1.6,0.6-2.9,0-2.9-1.3
		c0-0.6,0.6-1.6,1.3-2.3c1.9-1.3,2.3-2.9,1.6-4.5c-1-2.3-1.6-4.5,0.3-7.1c0.3-0.3,0-1.3-0.6-1.6c-0.3-0.3-1.3-0.3-1.9-0.3
		c-0.6,0-1.6,0.3-2.3,0.3c-1.3,0.3-2.3,0-2.6-1c-0.3-1-0.3-2.3-0.6-3.2c-1-2.6-2.6-4.9-5.8-6.2c-1-0.3-1.9-0.3-2.6,0.6
		c-0.6,1-1,1.9-1.3,3.2c-1.3,2.9-2.9,6.2-7.8,6.8c-2.3,0.3-2.6,1-2.3,2.6c0.3,1.3,0.3,2.3,0.6,3.6c0.3,1.6,0,2.6-1.6,3.6
		c-0.6,0.3-1,0.6-1.3,1.3c-1,1.6-1.6,3.2-2.3,5.2c-0.6,1.3-1,2.6-2.3,3.2c-2.3,1.3-4.5,2.3-7.1,3.2c-1.3,0.3-1.6,1-1.6,1.9
		c0.3,2.9,2.3,5.2,4.5,7.5c1.9,1.6,1.6,1.9-0.6,3.2c-0.3,0-0.6,0.3-1,0.3c-1.9,0.6-4.2,1.3-6.2,1.9c-1,0.3-1.9,0.6-1.9,1.6
		c0,1.3,0.3,2.6,0.6,3.9c1,1.6,2.3,2.9,3.2,4.5c0.6,1,1.6,2.3,1,3.6c-1.3,2.9-3.9,5.2-6.2,7.5c-0.2,0.2-0.8,0.3-1.1,0.3
		c-0.1-0.8,0-1.7,0.2-2.6c1-4.5-1.3-7.5-5.2-9.4c-0.3,0-0.3-0.3-0.3-0.6c2.6-2.9,0.6-4.9-0.6-7.5c-1.6-2.6-5.8-3.6-4.5-8.1
		c0.3-1.3-1.3-3.2-2.6-4.5c-0.6-0.6-2.3,0-3.6,0c0,2.3-3.2,3.6-1.6,6.2c0.3,0.3-0.3,1-0.6,1.6c-1.6,1.9-3.9,3.9-5.2,6.2
		c-0.8,1.3-1.5,2.8-1.2,4.2l-0.1,0c-0.5,1.5-0.8,3-1.2,4.4c-0.6,0.5-1.2,0.9-1.7,1.4c-0.6,0.9-1.2,2-1.3,3.2c-0.7,0.2-1.5,0-2.3-0.6
		c-1-0.6-1.6-1.6-2.6-2.3c-1.3-1.6-2.6-3.2-4.2-4.9c-1.6-1.3-3.6-1.9-5.2,0c0,0.3-0.3,0.3-0.6,0.6c-1.3,1.3-3.2,1-3.9-0.3
		c-0.6-1.6-1.3-3.2-1.9-4.9c-1-2.6-1.3-5.2-2.6-7.8c-1.6-2.6-1.9-5.5-2.6-8.1c-0.3-1.9-1-4.2-1.6-6.2c-0.3-1-1.3-1.6-1.9-2.6
		c-0.3,0-0.3,0-0.6,0c-0.3,1.3-0.3,2.3-0.6,3.6c-0.2,1.1-0.3,2.1-0.5,3.2c-1.9-1.9-4.8-3.2-3.7-7.1c0.3-1.3-1.3-3.2-2.6-4.5
		c-0.6-0.6-2.3,0-3.6,0c0,2.3-3.2,3.6-1.6,6.2c0.3,0.3-0.3,1-0.6,1.6c-1.6,1.9-3.9,3.9-5.2,6.2c-1.3,1.9-2.3,4.5,0.3,6.5
		c-1.6,1.3-3.2,2.3-4.5,3.6c-0.6,1-1.3,2.3-1.3,3.6c0.6,3.9,1,7.8-2.6,10.7c-0.6,0.6-1,2.9-0.6,3.2c2.9,2.6,0.3,3.9-1,5.8
		c-1.3,1.9-3.6,4.5-3.2,5.8c0.3,0.6,0.4,1.1,0.5,1.5c-0.6-0.6-1.4-1.2-2.5-1.5c-1-0.3-1.3-0.6-0.6-1.6c1.6-3.2,0.6-6.8-2.6-8.8
		c-0.9-0.6-1.7-0.8-2.4-0.8c-0.3-3-2.3-5.1-5.4-6.7c-0.3,0-0.3-0.3-0.3-0.6c2.6-2.9,0.6-4.9-0.6-7.5c-1.6-2.6-5.8-3.6-4.5-8.1
		c0.3-1.3-1.3-3.2-2.6-4.5c-0.6-0.6-2.3,0-3.6,0c0,2.3-3.2,3.6-1.6,6.2c0.3,0.3-0.3,1-0.6,1.6c-1.6,1.9-3.9,3.9-5.2,6.2
		c-1.3,1.9-2.3,4.5,0.3,6.5c-1.6,1.3-3.2,2.3-4.5,3.6c-0.5,0.8-1,1.7-1.2,2.7c-0.7-0.6-0.7-1.2-0.4-1.8c0.3-0.6,1-1.6,1.3-2.3
		c0.3-1.3,1-2.6,1.3-3.9c0.3-1-0.3-1.6-1.3-1.6c-1.6-0.3-1.9-1.3-1.9-2.3c0-1.6,0-3.2,0-4.9c0-1.6-2.3-3.2-4.5-3.2
		c-1.6,0-2.9,1-3.2,2.9c0,0,0,0,0,0.3c-0.3,3.6-1.3,7.1-2.6,10.4c-0.6,1.6-1.3,2.9-2.3,4.5c-0.6,1-1.6,1-2.6,0.3
		c-0.3-0.3-0.6-0.6-0.6-1c-0.6-1.6-1.3-3.6-1.6-5.5c-0.3-2.3-1.3-4.2-2.9-5.8c-1.9-1.9-2.9-4.2-2.9-6.8c0-1.6,0-3.2-0.3-4.9
		c-0.3-1.3-0.3-2.6-1.9-3.6c0,0.3-0.3,0.3-0.3,0.6c-1,4.2-2.3,8.4-3.2,12.6c-0.6,2.9-1.6,5.8-2.3,8.8c-0.6,2.6-1,4.9-1.3,7.5
		c-0.3,1.9-0.6,3.9-1.9,5.5c-0.6,0.6-1.3,1.3-2.6,1c-0.6-0.3-1.6-1-1.9-1.6c-0.6-2.3-1-4.5-1.6-6.8c-0.3-1.6-1.3-3.2-1.9-4.9
		c-0.3-0.6-1.3-1-1.9-1.3c-0.3,0.6-1,1.3-1,1.9c-0.3,2.9,0,5.5-0.3,8.4c-0.3,1.9-0.6,4.2-1,6.2c0,0.3-0.6,1-1,1
		c-0.6,0-1.3-0.3-1.6-0.6c-0.6-1-1.3-2.3-1.9-3.2c-0.6-1.3-1-2.6-2.9-3.2c0,0.3-0.3,0.6-0.3,1c-0.6,5.5-1.6,10.7-2.3,16.2
		c-0.6,4.5-1.6,8.8-3.6,13c-0.6,1.6-2.3,3.2-4.2,4.2c-0.6,0.3-1.3,0.3-1.9,0.3c0-0.3-0.3-1-0.3-1.3c0.3-0.6,0.6-1.3,1.3-1.9
		c1-1.9,2.3-3.9,3.2-5.8c0.6-1.6,0-2.9-1.9-3.9c-1-0.3-1.6-1-2.6-1.3c-0.1-0.1-0.2-0.1-0.2-0.2v33.3h135.8
		c4.6-6.3,10.9-8.8,17.9-9.1h2.9c12.4,0.8,24.9,0.8,37.4,0.2l-0.1,0.1c18.2-1,36.3-2.9,54.8-5.2c0,0,0-0.1,0-0.1
		C251.7,910.2,254.7,909.8,257.8,909.4z"/>
	<linearGradient id="XMLID_10_" gradientUnits="userSpaceOnUse" x1="700.0001" y1="801.8293" x2="700.0001" y2="1342.0916">
		<stop  offset="0" style="stop-color:#6B42A9"/>
		<stop  offset="0.995" style="stop-color:#BEACCE"/>
	</linearGradient>
	<path id="XMLID_190_" fill-rule="evenodd" clip-rule="evenodd" fill="url(#XMLID_10_)" d="M0,843.1c125.1,31.7,942,222.5,1400-66.8
		v257.3c-487.7-36.5-958.9-44.4-1400-0.4V843.1z"/>
	<linearGradient id="XMLID_11_" gradientUnits="userSpaceOnUse" x1="700.0001" y1="1041.8533" x2="700.0001" y2="628.0185">
		<stop  offset="0" style="stop-color:#6B42A9"/>
		<stop  offset="0.995" style="stop-color:#BEACCE"/>
	</linearGradient>
	<path id="XMLID_189_" fill-rule="evenodd" clip-rule="evenodd" fill="url(#XMLID_11_)" d="M1400,1033.8
		c-470.6-28.6-937.8-32.3-1400-0.1V904.9c33.8-2.7,76.5-6,125.8-9.1c116.9-7.1,271.8-13.6,436.1-12.3
		c111.3,9.1,223.8,21.1,328.8,35.4c298.4,41.1,443,67.1,509.2,80.9V1033.8z"/>
	<linearGradient id="XMLID_12_" gradientUnits="userSpaceOnUse" x1="700.0001" y1="1317" x2="700.0001" y2="934.9791">
		<stop  offset="0" style="stop-color:#6B42A9"/>
		<stop  offset="0.995" style="stop-color:#BEACCE"/>
	</linearGradient>
	<path id="XMLID_188_" fill-rule="evenodd" clip-rule="evenodd" fill="url(#XMLID_12_)" d="M1400,974.7
		c-591.7-42.4-673.1,402-1400,149.7v214.8h1400V974.7z"/>
	<linearGradient id="XMLID_13_" gradientUnits="userSpaceOnUse" x1="700.0001" y1="1599" x2="700.0001" y2="665.8998">
		<stop  offset="0" style="stop-color:#6B42A9"/>
		<stop  offset="0.995" style="stop-color:#BEACCE"/>
	</linearGradient>
	<path id="XMLID_187_" fill-rule="evenodd" clip-rule="evenodd" fill="url(#XMLID_13_)" d="M0,1108.3
		c591.7-35.1,673.1,333.2,1400,124.1V1400H0V1108.3z"/>
	<path id="XMLID_185_" fill-rule="evenodd" clip-rule="evenodd" fill="#FFFFFF" d="M1160.2,1204.4H805.6
		c-41.7,0-75.6-33.8-75.6-75.6l0-857.6c0-41.7,33.8-75.6,75.6-75.6l354.6,0c41.7,0,75.6,33.8,75.6,75.6l0,857.6
		C1235.8,1170.5,1202,1204.4,1160.2,1204.4"/>
	<linearGradient id="XMLID_16_" gradientUnits="userSpaceOnUse" x1="982.9414" y1="-26.2535" x2="982.9414" y2="1035.8527">
		<stop  offset="0" style="stop-color:#6B42A9"/>
		<stop  offset="0.995" style="stop-color:#BEACCE"/>
	</linearGradient>
	
		<rect id="XMLID_184_" x="744" y="276.1" fill-rule="evenodd" clip-rule="evenodd" fill="url(#XMLID_16_)" width="477.9" height="847.9"/>
	<linearGradient id="XMLID_39_" gradientUnits="userSpaceOnUse" x1="982.9414" y1="765" x2="982.9414" y2="1559.0101">
		<stop  offset="0" style="stop-color:#6B42A9"/>
		<stop  offset="0.995" style="stop-color:#BEACCE"/>
	</linearGradient>
	<path id="XMLID_183_" fill-rule="evenodd" clip-rule="evenodd" fill="url(#XMLID_39_)" d="M744,1011.7
		c158.8,1,318.2,5.4,477.9,12.8v99.5H744V1011.7z"/>
	<linearGradient id="XMLID_43_" gradientUnits="userSpaceOnUse" x1="743.9949" y1="728.5638" x2="1221.8879" y2="728.5638">
		<stop  offset="0" style="stop-color:#6B42A9"/>
		<stop  offset="0.995" style="stop-color:#BEACCE"/>
	</linearGradient>
	<polygon id="XMLID_182_" fill-rule="evenodd" clip-rule="evenodd" fill="url(#XMLID_43_)" points="1221.9,777.6 1074.5,710.2 
		870.3,637.8 781.4,570.3 744,548.4 744,908.8 1221.9,908.8 	"/>
	<linearGradient id="XMLID_70_" gradientUnits="userSpaceOnUse" x1="743.9949" y1="766.464" x2="1221.8879" y2="766.464">
		<stop  offset="0" style="stop-color:#6B42A9"/>
		<stop  offset="0.995" style="stop-color:#BEACCE"/>
	</linearGradient>
	<polygon id="XMLID_181_" fill-rule="evenodd" clip-rule="evenodd" fill="url(#XMLID_70_)" points="1221.9,629.2 1212.9,624.2 
		1097,691.8 1016.5,752.9 831.7,818.5 744,858.6 744,908.8 1221.9,908.8 	"/>
	<linearGradient id="XMLID_71_" gradientUnits="userSpaceOnUse" x1="982.9414" y1="843.8335" x2="982.9414" y2="459.2212">
		<stop  offset="0" style="stop-color:#6B42A9"/>
		<stop  offset="0.995" style="stop-color:#BEACCE"/>
	</linearGradient>
	<path id="XMLID_186_" fill-rule="evenodd" clip-rule="evenodd" fill="url(#XMLID_71_)" d="M799.5,947.3c-0.6-1-2.3-2.3-1.5-3.7h3.7
		c-0.4,0.6-0.9,1.1-1.5,1.6C799.9,945.6,799.6,946.5,799.5,947.3 M870,944.3c-0.1-0.2-0.3-0.5-0.4-0.7h2.4
		C871.5,944.2,870.9,944.5,870,944.3z M835.3,952.5c-0.8-1-1.4-2.1,0.7-3.7c0.3-0.3,0-2.9-0.6-3.9c-0.4-0.4-0.8-0.9-1.1-1.3h4.6
		c-0.2,1.5-0.4,3-0.5,4.5c-0.3,1.6-0.6,3.2-2.6,4.2C835.5,952.4,835.4,952.5,835.3,952.5z M744,952.8c0.2,0,0.5,0,0.7,0
		c1.4,0.1,2.7,0.2,4,0.2c3.2,0.2,6.5,0.3,9.7,0.3l0,0c0.6,0,1.3,0,1.9,0c6,0.2,12,0.3,17.9,0.3v-0.1c6.9,0,13.9,0.1,20.8,0.1l0,0
		h2.3h0.1h0.5h0.2h0.3h0.4h0.2h0.5h20.1c-0.2,0.3-0.4,0.6-0.6,1c35,0,81.3-6.7,115.3,2.7c13.3-0.3,26.3,0,39.2,1
		c0.4-0.3,0.8-0.6,1.1-0.9c0.5,0,0.9,0.1,1.4,0.1c8.3,0.7,21.6,34,29.8,35l30,22.8c14.2,1.7-17.6-61.2-3.5-59.3l0-0.1
		c3.5,0.5,6.9,0.9,10.4,1.3c0.4,0.1,0.7,0.2,1.1,0.3c0,0.1-0.1,0.2-0.1,0.4c0.3-0.1,0.5-0.2,0.8-0.2c0.4,0.1,0.7,0.1,1.1,0.2
		c4.9,0.6,9.7-29.7,14.9-29.1c0,0-0.1-0.1-0.1-0.1c7.6,0.9,15.2,1.8,22.9,2.7v-0.3l2.2,0.3c-0.1,0-0.1,0-0.2,0.1
		c18,2.2,36,4.4,53.9,6.6c9.4,1.2,18.9,2.5,28.4,3.8l0-0.1c1,0.1,2,0.3,3,0.4c0.1,0.2,0.3,0.4,0.3,0.4c8,1.1,16.3,2.2,24.6,3.3
		c7.5,1.1,15,2.3,22.4,3.6v-75.3c-1.3-1.7-2.5-3.3-3.6-4.8c1.3-1,3.1-3.2,3.6-5.2v-1.5l0,0c-0.5-1.7-0.8-3.5,0-5.2v-3.7
		c-0.3-0.1-0.7-0.2-1-0.2c-0.6,0-1.6,0-2.3,0c-1.3,0-2.3-0.3-2.3-1.3c0-1,0-2.3-0.3-3.2c-0.3-2.6-1.9-5.2-5.2-6.8
		c-1-0.6-1.9-0.6-2.6,0c-0.6,1-1.3,1.9-1.9,2.9c-1.9,2.9-3.6,5.5-8.8,5.8c-2.3,0-2.6,0.6-2.6,2.3c0,1.3,0,2.3,0.3,3.6
		c0.3,1.6-0.3,2.6-2.3,3.2c-0.6,0.3-1.3,0.6-1.6,1c-1,1.6-1.9,3.2-2.9,4.9c-0.6,1.3-1.3,2.3-2.9,2.9c-2.3,1-4.9,1.6-7.5,2.3
		c-1.6,0.3-1.6,1-1.6,1.9c0,2.9,1.6,5.5,3.6,8.1c1.6,1.9,1.6,2.3-1,3.2c-0.3,0-0.6,0.3-1,0.3c-2.3,0.3-4.2,0.6-6.5,1
		c-1,0-1.9,0.3-1.9,1.3c0,1.3-0.3,2.6,0.3,3.9c0.6,1.6,1.6,3.2,2.6,4.9c0.6,1.3,1.3,2.3,0.3,3.6c-1.6,2.6-4.5,4.5-7.1,6.5
		c-0.3,0.3-1.3,0-1.3,0c-0.8-0.7-1.5-1.4-2.2-2.1c0.6-1.2,1.3-2.2,1.9-3.5c0.3-0.6-0.3-1.6-1-1.9c-1.6-0.6-1.6-1.6-1.6-2.6
		c0.3-1.6,0.6-3.2,0.6-4.9s-1.9-3.6-3.9-3.9c-0.3-0.1-0.7-0.1-1,0c0-1.2-0.1-2.3-0.3-3.5c0-0.3-1-1-1.3-1.3c-0.3,0.3-1,0.6-1.3,1
		c-1,1.9-1.6,3.9-2.6,5.5c-1,2.3-2.3,4.5-3.6,6.8c-0.3,0.3-1,1-1.6,1c-0.6,0-1.6-0.6-1.6-1.3c-0.6-1.3-0.6-2.6-1-3.9
		c-0.3-1-0.3-2.3-1.9-2.9c-0.3,0.6-0.6,1.2-0.8,1.7c-1.5-2.2-2.1-4.4-1.5-6.9c0.3-1.6,0.6-3.2,0.6-4.9c0-1.3,0-2.6-1.3-3.9
		c-0.3,0.3-0.3,0.3-0.3,0.3c-1.6,3.9-3.6,7.8-5.2,11.7c-0.9,1.8-1.8,3.7-2.5,5.5c-0.9-1.3-1.7-2.7-2.6-3.9c-1.3-1.6-3.2-2.3-5.2-0.6
		c-0.3,0-0.3,0.3-0.6,0.3c-1.6,1-3.2,0.6-3.6-1c-0.6-1.6-0.6-3.2-1-5.2c-0.6-2.6-0.3-5.5-1.6-8.1c-1-2.9-1.3-5.5-1.3-8.4
		c0-2.3-0.3-4.2-0.6-6.5c-0.3-1-1-1.9-1.3-2.9c-0.3,0-0.3,0-0.6,0c-0.3,1-0.6,2.3-1,3.2c-0.6,1.9-1.3,4.2-1.9,6.2
		c-1,2.6-1.9,5.2-3.2,7.8c-1,2.6-2.3,5.2-3.2,7.8c-1,2.9-1.9,5.8-2.6,8.8c-0.3,1.6-1.3,3.2-3.2,3.9c-1.3,0.6-2.6,0.3-3.2-1
		c-0.6-1-1-1.9-1-2.9c-0.3-3.6-0.6-7.1-1.3-10.7c-0.3-1,0-2.3-1.6-3.6c-0.3,0.3-0.3,0.6-0.6,1c-0.6,3.2-1.3,6.5-2.3,9.7
		c-0.6,1.9-1.3,3.9-2.3,5.5c-0.6,1-1.6,1.9-1.9,3.2c-1,2.3-1.6,4.9-2.9,7.1c-0.6,1.6-1.9,2.9-4.5,3.2c0-0.6,0-1,0-1.3
		c0-2.3-1-4.2-3.6-5.8c-1-0.6-1-1-0.6-1.6c1.9-2.9,1.6-6.5-1.3-9.1c-1.6-1.3-3.6-1.6-4.9,0c-1,1-1.3,1.9-1.9,2.9
		c-0.6,1.3-1.3,2.9-2.3,4.2c-0.6,0.6-1.6,1.3-2.9,1.3c-1.3,0-2.3-0.6-2.6-1.6c-0.6-1-1-2.3-1.3-3.2c-0.3-2.3-0.3-4.5-1-6.8
		c0-1-0.6-1.9-1.3-2.6c-1.6,0.6-2.6,1.3-2.6,2.3c-0.3,1.3-0.3,2.6-1,3.9c-0.6,2.3-1.3,4.9-2.6,7.1c-1,1.6-2.6,3.2-5.2,3.6
		c-1.3,0.3-2.3-0.3-3.2-1c-0.6-0.6-1-1.3-0.6-2.3c1.6-2.9,2.6-6.2,2.6-9.4c0-1.3-0.3-2.9-1.6-3.9c-1-0.6-1-1.3-0.3-2.3
		c0.3-0.6,1-1.3,1.3-1.9c0.6-1.3,1.3-2.3,1.6-3.6c0.3-0.6-0.3-1.6-1.3-1.9c-1.6-0.6-1.9-1.6-1.6-2.6c0.3-1.6,0.6-3.2,0.6-4.9
		c0-1.6-1.9-3.6-4.2-3.9c-1.6-0.3-2.9,0.6-3.6,2.6c0,0,0,0,0,0.3c-0.6,3.6-2.3,6.8-4.2,10.1c-1,1.3-1.6,2.9-2.9,4.2
		c-0.6,1-1.9,1-2.6-0.3c-0.3-0.3-0.6-0.6-0.6-1c-0.3-1.9-1-3.6-1-5.5c0-2.3-0.6-4.2-2.3-6.2c-1.6-2.3-2.3-4.5-1.9-7.1
		c0.3-1.6,0.6-3.2,0.3-4.9c0-1.3,0-2.6-1.6-3.9c-0.3,0.3-0.3,0.3-0.3,0.3c-1.6,3.9-3.2,8.1-4.9,12c-1.3,2.9-2.3,5.5-3.6,8.4
		c-1,2.3-1.6,4.9-2.3,7.1c-0.5,1.5-0.8,2.8-1.7,4.1c0-0.2,0-0.3,0-0.5c0.3-2.3-0.3-4.2-1.3-6.2c-1-2.3-1.6-4.5,0.3-6.5
		c0.3-0.3,0.3-1,0.3-1.3c-0.3-1.6-0.3-3.2-1-4.9c-1-2.9-2.3-5.5-1.3-8.4c0-0.3,0-0.6,0-0.6c-0.3-0.3-0.6-1-1.3-1
		c-0.3,0-1,0.3-1.3,0.3c-0.3,0.3-0.6,1-0.6,1.6c0.3,3.9-1.9,7.1-3.9,10.4c-1.6,2.6-2.9,5.2-2.9,8.1c0,0.3-0.3,1-0.6,1.3
		c-0.3,0.3-0.6,0.6-1,0.6c-0.3,0-1-0.3-1-0.6c-0.6-1-1-2.3-1.6-3.6c-0.3,0.3-1,0.3-1,0.6c-0.6,1-1,1.9-1.3,2.9
		c-1.3,3.6-1.9,7.5-4.2,11c-0.3,0.3-0.3,0.6-0.3,1c-0.5,1.2-1,2.3-1.6,3.4c-0.1-1-0.5-1.9-0.9-2.8c0.1-0.9,0-1.7-0.4-2.6h-0.6
		c-0.5-1.7-0.5-3.4,0.9-4.9c0.3-0.3,0.3-1,0.3-1.3c-0.3-1.6-0.3-3.2-1-4.9c-1-2.9-2.3-5.5-1.3-8.4c0-0.3,0-0.6,0-0.6
		c-0.3-0.3-0.6-1-1.3-1c-1.5-0.5-4.5,10.1-6.9,16.3c-1.6,0.5-3.3,0.7-5.1,0.2c-2.9-0.6-3.9-3.6-1.9-5.2c1.3-1.3,2.3-2.3,3.2-3.6
		c1.3-1.9,1.9-3.9,1.9-6.2c-0.3-1.9-1.3-2.3-3.2-1.3c-1,0.6-2.3,1.3-3.2,1.6c-1.6,0.6-2.9,0-2.9-1.3c0-0.6,0.6-1.6,1.3-2.3
		c1.9-1.3,2.3-2.9,1.6-4.5c-1-2.3-1.6-4.5,0.3-7.1c0.3-0.3,0-1.3-0.6-1.6c-0.3-0.3-1.3-0.3-1.9-0.3c-0.6,0-1.6,0.3-2.3,0.3
		c-1.3,0.3-2.3,0-2.6-1c-0.3-1-0.3-2.3-0.6-3.2c-1-2.6-2.6-4.9-5.8-6.2c-1-0.3-1.9-0.3-2.6,0.6c-2.3,3.9-2.9,6.2-6.5,8.8
		c-3.9,2.9-4.2,0-4.9,5.5c-0.6,5.5,1.6,9.7-4.5,13.6c-5.2,3.2-12,1.3-17.2,3.2c-2.9,1.1-4.3,3.2-5.4,5.6c-5.6-2.5-16.1-4.7-21.9-5.9
		c-4.2-1-9.1-0.3-12.3-4.2c-4.2,3.2-8.4-1.3-13-1.9c-6.8-0.6-15.6,4.9-20.8-1.9c-1.3-1.6-2.6-3.6-2.9-5.2c0-0.6-0.6-1.6-1-2.3
		c0-0.3-1-0.3-1.6-0.6c-0.3,0.3-1,0.3-1.3,0.6c-0.6,1-1.3,1.9-1.9,3.2c-0.6,1.3-1.6,2.6-2.6,3.9c-0.1,0.1-0.3,0.3-0.5,0.4
		c-0.5-0.7-1.2-1.4-1.7-2c-0.5-0.5-1.4-0.3-2.4-0.1c-0.1-0.1-0.1-0.1-0.2-0.2c-0.3-0.6-0.3-1-2.3-1.3c-0.6,1-1,1.9-1.6,2.9
		c-0.3,0.3-0.6,1-1.3,1.3c-1,0.6-2.3,0.6-3.6,0.3c-1-0.3-1.6-1-2.6-1.3c-1.3-1-2.6-1.6-4.2-2.6c-1.6-0.6-3.6-1-5.2,0
		c0,0-0.3,0.3-0.6,0.3c-1.3,0.6-3.2,0.6-3.9-0.3c-0.6-1-1.3-1.6-1.9-2.6c-1-1.3-1.3-2.9-2.6-4.2c-1.6-1.3-1.9-2.9-2.6-4.2
		c-0.3-1-1-2.3-1.6-3.2c-0.3-0.6-1.3-1-1.9-1.3c-0.3,0-0.3,0-0.6,0c-0.3,0.6-0.3,1.3-0.6,1.9c-0.3,1.3-0.6,2.3-1.3,3.6
		c-0.6,1.6-1.3,2.9-1.9,4.5c-0.6,1.3-1.6,2.9-1.9,4.2c-0.6,1.6-1,3.2-1.3,4.9c-0.3,1-0.6,1.6-2.6,2.3c-1.3,0.3-2.6,0.3-3.2-0.3
		c-0.6-0.3-1-1-1.3-1.3c-1-1.9-1.6-3.6-2.6-5.5c-0.3-0.6-0.3-1.3-1.9-1.6c0,0.3-0.3,0.3-0.3,0.6c-0.3,1.6-0.6,3.6-1,5.2
		c-0.3,1-1,1.9-1.3,3.2c-0.3,0.6-1.3,1.3-1.6,1.6c-0.6,1.3-1,2.6-1.9,3.9c-0.5,0.8-1.2,1.3-2.7,1.7c-1.8-2.2-5.3-3.3-4.1-7.5
		c0.3-1.3-1.3-3.2-2.6-4.5c-0.4-0.4-1.1-0.3-1.8-0.2V952.8z"/>
	<linearGradient id="XMLID_72_" gradientUnits="userSpaceOnUse" x1="982.9414" y1="801.8293" x2="982.9414" y2="1342.0916">
		<stop  offset="0" style="stop-color:#6B42A9"/>
		<stop  offset="0.995" style="stop-color:#BEACCE"/>
	</linearGradient>
	<path id="XMLID_176_" fill-rule="evenodd" clip-rule="evenodd" fill="url(#XMLID_72_)" d="M744,933.9
		c162.2-2,329.2-21.7,477.9-73.3v161c-161.5-9.7-321-16-477.9-17.8V933.9z"/>
	<linearGradient id="XMLID_73_" gradientUnits="userSpaceOnUse" x1="982.9414" y1="1041.8533" x2="982.9414" y2="628.0185">
		<stop  offset="0" style="stop-color:#6B42A9"/>
		<stop  offset="0.995" style="stop-color:#BEACCE"/>
	</linearGradient>
	<path id="XMLID_175_" fill-rule="evenodd" clip-rule="evenodd" fill="url(#XMLID_73_)" d="M1221.9,1024.2
		c-159.7-7.5-319.1-12-477.9-13V900.9c49.9,5.5,99.1,11.5,146.8,18c142.9,19.7,250.5,35.9,331.1,49V1024.2z"/>
	<linearGradient id="XMLID_74_" gradientUnits="userSpaceOnUse" x1="991.6338" y1="1317" x2="991.6338" y2="934.9791">
		<stop  offset="0" style="stop-color:#6B42A9"/>
		<stop  offset="0.995" style="stop-color:#BEACCE"/>
	</linearGradient>
	<path id="XMLID_174_" fill-rule="evenodd" clip-rule="evenodd" fill="url(#XMLID_74_)" d="M1221.9,976.8
		c-187.8,19.1-320,89.9-460.5,147.1h460.5V976.8z"/>
	<path id="XMLID_173_" fill-rule="evenodd" clip-rule="evenodd" fill="#575552" d="M1031.3,244.4H930.4c-2,0-3.5-1.6-3.5-3.5
		c0-2,1.6-3.5,3.5-3.5h100.9c2,0,3.5,1.6,3.5,3.5C1034.8,242.9,1033.2,244.4,1031.3,244.4"/>
	<path id="XMLID_172_" fill-rule="evenodd" clip-rule="evenodd" fill="#696765" d="M1018.3,244.4h-87.9c-2,0-3.5-1.6-3.5-3.5
		c0-2,1.6-3.5,3.5-3.5h90.1L1018.3,244.4z"/>
	<path id="XMLID_171_" opacity="0.31" fill-rule="evenodd" clip-rule="evenodd" fill="#FFFFFF" d="M776.5,384.5h412.9
		c8.1,0,14.8,6.7,14.8,14.8v233.9c0,8.1-6.7,14.8-14.8,14.8H776.5c-8.1,0-14.8-6.7-14.8-14.8V399.3
		C761.7,391.2,768.3,384.5,776.5,384.5"/>
	<path id="XMLID_135_" opacity="0.31" fill-rule="evenodd" clip-rule="evenodd" fill="#FFFFFF" d="M770.9,656.8H1195
		c5.1,0,9.2,4.1,9.2,9.2v379.8c0,5.1-4.1,9.2-9.2,9.2H770.9c-5.1,0-9.2-4.1-9.2-9.2V666C761.7,660.9,765.8,656.8,770.9,656.8"/>
	<path fill-rule="evenodd" clip-rule="evenodd" fill="#FFFFFF" d="M981,1092.6c-0.4,4.7-2.5,6.1,2.9,6c1.8-0.1,1.8-0.9,1.5-2.7
		c-0.2-1.1-0.8-2.8-0.2-3.6c0.7-0.9,1.5-1.2,1.3-3.2c-0.6-4.4-7.2-3.9-7,0.6C979.4,1091.4,980.2,1092,981,1092.6 M977.6,1079.9h10.5
		v-7.7c0-2.9-2.4-5.3-5.3-5.3s-5.3,2.4-5.3,5.3V1079.9z M971.3,1079.9c-5.3-0.2-6.2,0.8-6.2,5.9c0,4.1,0,8.2,0,12.4
		c0,4.9-0.2,6.7,5.5,6.6l24.5,0c2.5,0,3.5,0.2,4.9-1.3c1.2-1.3,0.8-3.3,0.8-5.4c0-4,0-8.1,0-12.1c0-2.4,0.4-3.6-1.1-5.1
		c-1.4-1.4-2.9-1.1-5.2-1c0-5,0.5-9.1-2-12.8c-5-7.3-15.4-6.3-19.3,0C970.6,1071.5,971.4,1074.3,971.3,1079.9z"/>
	<path id="XMLID_60_" fill-rule="evenodd" clip-rule="evenodd" fill="#FFFFFF" d="M594.4,1204.4H239.8c-41.7,0-75.6-33.8-75.6-75.6
		l0-857.6c0-41.7,33.8-75.6,75.6-75.6l354.6,0c41.7,0,75.6,33.8,75.6,75.6l0,857.6C669.9,1170.5,636.1,1204.4,594.4,1204.4"/>
	<linearGradient id="XMLID_75_" gradientUnits="userSpaceOnUse" x1="417.0588" y1="-26.2535" x2="417.0588" y2="1035.8527">
		<stop  offset="0" style="stop-color:#6B42A9"/>
		<stop  offset="0.995" style="stop-color:#BEACCE"/>
	</linearGradient>
	<polygon id="XMLID_59_" fill-rule="evenodd" clip-rule="evenodd" fill="url(#XMLID_75_)" points="656,1100.5 656,1122.4 
		391.9,1122.4 178.1,1122.4 178.1,1112.2 178.1,1112 178.1,1107.3 178.1,1005.2 178.1,997.7 178.1,981.8 178.1,979.6 178.1,979.2 
		178.1,971.4 178.1,970.4 178.1,938.7 178.1,887.3 178.1,874.8 178.1,856.7 178.1,849.6 178.1,832.4 178.1,830.9 178.1,821.1 
		178.1,819.4 178.1,812.4 178.1,810 178.1,760.6 178.1,729.8 178.1,568.3 178.1,274.5 656,274.5 656,585.8 656,628.2 656,746.5 
		656,804 656,874.8 656,888.1 656,891.6 656,923.3 656,924.8 656,930.2 656,945.2 656,965.1 656,974.2 656,980.2 656,980.7 
		656,980.8 656,986.6 656,987.7 656,997.7 656,1015.5 656,1022.3 656,1092.1 656,1099.9 	"/>
	<linearGradient id="XMLID_76_" gradientUnits="userSpaceOnUse" x1="417.0588" y1="765" x2="417.0588" y2="1559.0101">
		<stop  offset="0" style="stop-color:#6B42A9"/>
		<stop  offset="0.995" style="stop-color:#BEACCE"/>
	</linearGradient>
	<path id="XMLID_58_" fill-rule="evenodd" clip-rule="evenodd" fill="url(#XMLID_76_)" d="M178.1,1023.3
		c158.8-7.7,318.1-11.5,477.9-11.8v4v6.8v69.8v7.8v0.5v21.9H391.9H178.1v-10.2v-0.2v-4.8V1023.3z"/>
	<linearGradient id="XMLID_77_" gradientUnits="userSpaceOnUse" x1="858.835" y1="702.1448" x2="-251.422" y2="702.1448">
		<stop  offset="0" style="stop-color:#6B42A9"/>
		<stop  offset="0.995" style="stop-color:#BEACCE"/>
	</linearGradient>
	<polygon id="XMLID_57_" fill-rule="evenodd" clip-rule="evenodd" fill="url(#XMLID_77_)" points="656,496.9 653.7,495.5 
		465.3,600.2 330.3,665.1 178.1,730.4 178.1,760.6 178.1,810 178.1,812.4 178.1,819.4 178.1,821.1 178.1,830.9 178.1,832.4 
		178.1,849.6 178.1,856.7 178.1,874.8 178.1,887.3 178.1,908.8 656,908.8 656,891.6 656,888.1 656,874.8 656,804 656,746.5 
		656,628.2 656,585.8 	"/>
	<linearGradient id="XMLID_93_" gradientUnits="userSpaceOnUse" x1="178.1124" y1="774.7775" x2="656.0053" y2="774.7775">
		<stop  offset="0" style="stop-color:#6B42A9"/>
		<stop  offset="0.995" style="stop-color:#BEACCE"/>
	</linearGradient>
	<polygon id="XMLID_56_" fill-rule="evenodd" clip-rule="evenodd" fill="url(#XMLID_93_)" points="656,876.1 534.3,820.6 349.6,755 
		269.1,693.9 178.1,640.8 178.1,729.8 178.1,760.6 178.1,810 178.1,812.4 178.1,819.4 178.1,821.1 178.1,830.9 178.1,832.4 
		178.1,849.6 178.1,856.7 178.1,874.8 178.1,887.3 178.1,908.8 656,908.8 656,891.6 656,888.1 	"/>
	<polygon id="XMLID_55_" fill-rule="evenodd" clip-rule="evenodd" fill="#192336" points="656,898.8 634.2,908.8 656,908.8 	"/>
	<linearGradient id="XMLID_99_" gradientUnits="userSpaceOnUse" x1="417.0588" y1="843.8335" x2="417.0588" y2="459.2212">
		<stop  offset="0" style="stop-color:#6B42A9"/>
		<stop  offset="0.995" style="stop-color:#BEACCE"/>
	</linearGradient>
	<path id="XMLID_2_" fill-rule="evenodd" clip-rule="evenodd" fill="url(#XMLID_99_)" d="M650.4,875c-0.7-0.5-1.5-1-2.2-1.5
		c-0.1-0.1-0.3-0.2-0.4-0.3c0-0.4-0.2-0.7-0.7-0.9c-0.2-0.5,0.3-0.9,1.5-1.7c2-1.4,3.7-2.8,5.4-4.4c-0.3,1.1-0.6,2.1-0.9,3.2
		C652.5,871.2,651.8,873.1,650.4,875 M460.3,867.3L460.3,867.3c0-0.2,0.1-0.4,0.1-0.6c0.4-1,0.7-1.9,0.9-2.9
		c0.1,0.3,0.2,0.6,0.4,0.9c0.3,0.3-0.3,1-0.6,1.6C460.8,866.7,460.6,867,460.3,867.3z M257.8,909.4
		C257.8,909.4,257.7,909.5,257.8,909.4c8.5-1.1,16.9-2.3,25.4-3.6c3.7-0.5,7.3-1,10.9-1.6c15.5-2.2,31-4.3,46.3-5.7
		c-0.6,0-1.3,0.1-1.9,0.1c0,0.1-0.1,0.3-0.1,0.5c-0.3,1.3,1,2.3,2.6,2.3c3.3-0.3,5.7-1.5,6.9-3.5c9.9-0.9,20-1.8,30-2.4
		c-0.1-0.1-0.1-0.2-0.2-0.2c3.2-0.3,6.5-0.5,9.7-0.7c0,0.1,0.1,0.2,0.2,0.3c8.5-0.9,17.5-1.5,26.6-2.1v0.1c1.8-0.2,3.6-0.3,5.5-0.5
		c1.7-0.1,3.3-0.2,5-0.3l7-0.3c0,0,0,0.1,0,0.1c1.3-0.1,2.6-0.2,3.9-0.3l6.9-0.3l1.1,0l0-0.1c2.3-0.1,4.5-0.2,6.8-0.3v0
		c3.3-0.1,6.7-0.2,10.1-0.3l0,0l0.4,0c4.3-0.1,8.7-0.3,13-0.4c22.4-0.5,44.8-0.5,67.1,0.1c5.4,0.1,10.7,0.3,16.1,0.5
		c7.2,0.3,14.4,0.7,21.5,1.1l0,0c6.7,0.4,13.4,0.8,20.1,1.3c0,0,0,0,0,0c4.5,0.3,8.8,0.6,13.3,1l0-0.1c14.3,1,28.5,2.2,42.9,3.3l0,0
		l1,0.1v-6v-3.5v-13.3v-18.6c-1.7-0.3-3.2-0.9-4.9-0.9c-3.9-0.6-6.2-3.9-4.9-6.2c1-1.6,2.6-2.9,4.5-3.9c2.3-1,4-2.4,5.2-4.1v-5.3h0
		c-3.6,1-5.2,0-4.9-2.9c0-0.6,0.3-1.6,0.3-2.3c0-0.3-0.3-1-0.6-1.3c-0.3,0.3-1,0.3-1.3,0.6c-2.3,1.3-4.9,1.9-7.5,1.3
		c-2.9-0.6-3.9-3.6-1.9-5.2c1.3-1.3,2.3-2.3,3.2-3.6c1.3-1.9,1.9-3.9,1.9-6.2c-0.3-1.9-1.3-2.3-3.2-1.3c-1,0.6-2.3,1.3-3.2,1.6
		c-1.6,0.6-2.9,0-2.9-1.3c0-0.6,0.6-1.6,1.3-2.3c1.9-1.3,2.3-2.9,1.6-4.5c-1-2.3-1.6-4.5,0.3-7.1c0.3-0.3,0-1.3-0.6-1.6
		c-0.3-0.3-1.3-0.3-1.9-0.3c-0.6,0-1.6,0.3-2.3,0.3c-1.3,0.3-2.3,0-2.6-1c-0.3-1-0.3-2.3-0.6-3.2c-1-2.6-2.6-4.9-5.8-6.2
		c-1-0.3-1.9-0.3-2.6,0.6c-0.6,1-1,1.9-1.3,3.2c-1.3,2.9-2.9,6.2-7.8,6.8c-2.3,0.3-2.6,1-2.3,2.6c0.3,1.3,0.3,2.3,0.6,3.6
		c0.3,1.6,0,2.6-1.6,3.6c-0.6,0.3-1,0.6-1.3,1.3c-1,1.6-1.6,3.2-2.3,5.2c-0.6,1.3-1,2.6-2.3,3.2c-2.3,1.3-4.5,2.3-7.1,3.2
		c-1.3,0.3-1.6,1-1.6,1.9c0.3,2.9,2.3,5.2,4.5,7.5c1.9,1.6,1.6,1.9-0.6,3.2c-0.3,0-0.6,0.3-1,0.3c-1.9,0.6-4.2,1.3-6.2,1.9
		c-1,0.3-1.9,0.6-1.9,1.6c0,1.3,0.3,2.6,0.6,3.9c1,1.6,2.3,2.9,3.2,4.5c0.6,1,1.6,2.3,1,3.6c-1.3,2.9-3.9,5.2-6.2,7.5
		c-0.3,0.3-1.3,0.3-1.3,0.3c-2.6-1.9-5.5-3.9-6.8-6.8c-1.3-3.2-2.6-6.5-2.9-10.1c0-1.6-0.6-2.9-1-4.5c0-0.3-1-0.6-1.6-1
		c-0.3,0.3-1,0.6-1.3,1.3c-0.6,1.9-1.3,3.9-1.9,5.8c-0.6,2.6-1.6,4.9-2.6,7.1c-0.3,0.3-1,1-1.3,1c-0.6,0-1.6-0.6-1.9-1
		c-0.6-1.3-1-2.6-1.6-3.9c-0.3-1-0.3-2.3-2.3-2.6c-0.6,1.9-1,3.9-1.6,5.5c-0.2,0.5-0.3,0.9-0.5,1.4c-0.7,0.1-1.4,0.3-2.1,0.3
		c0,0.7-0.3,1.4-0.7,2c-0.5-0.1-1-0.3-1.5-0.7c-1-0.6-1.6-1.6-2.6-2.3c-1.3-1.6-2.6-3.2-4.2-4.9c-1.6-1.3-3.6-1.9-5.2,0
		c0,0.2-0.2,0.3-0.4,0.5c-0.2-0.4-0.2-0.7-0.2-1.1V845c-0.3-0.3-0.6-0.3-1.3-0.3c-0.3,0-1,0.3-1.3,0.3c-0.3,0.3-0.6,0.6-0.3,1
		c0.2,0.5,0.3,0.9,0.3,1.4c-0.5-0.2-1-0.5-1.3-1c-0.6-1.6-1.3-3.2-1.9-4.9c-1-2.6-1.3-5.2-2.6-7.8c-1.6-2.6-1.9-5.5-2.6-8.1
		c-0.3-1.9-1-4.2-1.6-6.2c-0.3-1-1.3-1.6-1.9-2.6c-0.3,0-0.3,0-0.6,0c-0.3,1.3-0.3,2.3-0.6,3.6c-0.3,2.3-0.6,4.2-1.3,6.5
		c-0.6,2.9-1.3,5.5-1.9,8.4c-0.6,2.6-1.6,5.5-1.9,8.1c-0.6,2.9-1,5.8-1.3,8.8c-0.3,1.6-0.6,3.2-2.6,4.2c-1.3,0.6-2.6,0.6-3.2-0.3
		c-0.6-1-1-1.6-1.3-2.6c-1-3.6-1.6-7.1-2.6-10.4c-0.3-1-0.3-2.3-1.9-3.2c0,0.6-0.3,1-0.3,1.3c-0.3,3.2-0.6,6.8-1,10.1
		c-0.1,0.5-0.2,1.1-0.3,1.6c-0.8,1.6-2.6,2.8-1.3,4.9c0,0,0,0.1,0.1,0.1c-0.3,0.8-0.9,1.4-1.2,2.1c-1.4,1.6-3.1,3.2-4.3,4.9
		c0-0.6,0-1.2,0.2-1.9c0.3-1.3-1.3-3.2-2.6-4.5c-0.6-0.6-2.3,0-3.6,0c0,0.4-0.1,0.8-0.3,1.1c-0.3-1.9-1.4-3.6-3.3-4.7
		c-1.9-1.3-3.6-1-4.5,0.6c-0.6,1-1,2.3-1.6,3.2c-0.4,1-0.7,1.9-1.1,2.8c-1.3-1.2-2.2-2.6-1.5-5.1c0.3-1.3-1.3-3.2-2.6-4.5
		c-0.6-0.6-2.3,0-3.6,0c0,1.3-1,2.2-1.6,3.2c-0.1-0.4-0.2-0.9-0.3-1.3c-0.3-1-1-1.6-1.6-2.6c-1.6,0.6-2.3,1.6-2.3,2.6
		c-0.3,1.3,0,2.6-0.3,3.9c-0.2,1.9-0.5,3.6-0.9,5.3c0.1-1.3-1.4-3.1-2.6-4.4c-0.6-0.6-2.3,0-3.6,0c0,1.3-1.1,2.3-1.7,3.4
		c0.2-1.7,0.2-3.3,0.1-5c-0.3-1.3-0.6-2.6-2.3-3.6c-1-0.6-1-1.3-0.6-1.9c0.3-0.6,1-1.6,1.3-2.3c0.3-1.3,1-2.6,1.3-3.9
		c0.3-1-0.3-1.6-1.3-1.6c-1.6-0.3-1.9-1.3-1.9-2.3c0-1.6,0-3.2,0-4.9s-2.3-3.2-4.5-3.2c-1.6,0-2.9,1-3.2,2.9c0,0,0,0,0,0.3
		c-0.3,3.6-1.3,7.1-2.6,10.4c-0.6,1.6-1.3,2.9-2.3,4.5c-0.6,1-1.6,1-2.6,0.3c-0.3-0.3-0.6-0.6-0.6-1c-0.6-1.6-1.3-3.6-1.6-5.5
		c-0.3-2.3-1.3-4.2-2.9-5.8c-1.9-1.9-2.9-4.2-2.9-6.8c0-1.6,0-3.2-0.3-4.9c-0.3-1.3-0.3-2.6-1.9-3.6c0,0.3-0.3,0.3-0.3,0.6
		c-1,4.2-2.3,8.4-3.2,12.6c-0.6,2.9-1.6,5.8-2.3,8.8c-0.6,2.6-1,4.9-1.3,7.5c-0.3,1.9-0.6,3.9-1.9,5.5c-0.6,0.6-1.3,1.3-2.6,1
		c-0.6-0.3-1.6-1-1.9-1.6c-0.6-2.3-1-4.5-1.6-6.8c-0.3-1.6-1.3-3.2-1.9-4.9c-0.3-0.6-1.3-1-1.9-1.3c-0.3,0.6-1,1.3-1,1.9
		c-0.3,2.9,0,5.5-0.3,8.4c-0.3,1.9-0.6,4.2-1,6.2c0,0.3-0.6,1-1,1c-0.6,0-1.3-0.3-1.6-0.6c-0.6-1-1.3-2.3-1.9-3.2
		c-0.6-1.3-1-2.6-2.9-3.2c0,0.3-0.3,0.6-0.3,1c-0.4,3-0.8,6-1.3,8.9c-0.6,0.1-1.1,0.2-1.7,0.2c0,2.3-3.2,3.6-1.6,6.2
		c0.1,0.1,0.1,0.1,0.1,0.2c-0.8-0.1-1.6-0.1-2.4-0.2c-0.2,0-0.4,0-0.6,0c0-0.1,0-0.2,0-0.3c2.6-2.9,0.6-4.9-0.6-7.5
		c-1.6-2.6-5.8-3.6-4.5-8.1c0.3-1.3-1.3-3.2-2.6-4.5c-0.6-0.6-2.3,0-3.6,0c0,2.3-3.2,3.6-1.6,6.2c0.3,0.3-0.3,1-0.6,1.6
		c-0.5,0.6-1,1.1-1.5,1.7c-1.4-1.2-2.4-2.7-1.7-5.3c0.3-1.3-1.3-3.2-2.6-4.5c-0.6-0.6-2.3,0-3.6,0c0,2.3-3.2,3.6-1.6,6.2
		c0.3,0.3-0.3,1-0.6,1.6c-0.3,0.3-0.6,0.7-0.9,1c-0.7-0.2-1.3-0.4-2-0.4c-0.1,0-0.3,0-0.4,0.1c-0.1-3.3-2.2-5.6-5.4-7.2
		c-0.3,0-0.3-0.3-0.3-0.6c2.6-2.9,0.6-4.9-0.6-7.5c-1.6-2.6-5.8-3.6-4.5-8.1c0.3-1.3-1.3-3.2-2.6-4.5c-0.6-0.6-2.3,0-3.6,0
		c0,2.3-3.2,3.6-1.6,6.2c0.3,0.3-0.3,1-0.6,1.6c-1.6,1.9-3.9,3.9-5.2,6.2c-1.3,1.9-2.3,4.5,0.3,6.5c-1.6,1.3-3.2,2.3-4.5,3.6
		c-0.6,1-1.3,2.3-1.3,3.6c0.3,1.8,0.5,3.6,0.3,5.3c-0.8-1-1.6-2-2-3c-0.6-1.3-3.2-2.9-0.6-4.9c0.3-0.3,0-2.9-0.6-3.9
		c-2.3-2.3-3.2-4.5-2.6-7.8c1-4.5-1.3-7.5-5.2-9.4c-0.3,0-0.3-0.3-0.3-0.6c2.6-2.9,0.6-4.9-0.6-7.5c-1.6-2.6-5.8-3.6-4.5-8.1
		c0.3-1.3-1.3-3.2-2.6-4.5c-0.6-0.6-2.3,0-3.6,0c0,2.3-3.2,3.6-1.6,6.2c0.3,0.3-0.3,1-0.6,1.6c-1.6,1.9-3.9,3.9-5.2,6.2
		c-1.3,1.9-2.3,4.5,0.3,6.5c-1.6,1.3-3.2,2.3-4.5,3.6c-0.6,1-1.3,2.3-1.3,3.6c0.6,3.9,1,7.8-2.6,10.7c-0.1,0.1-0.2,0.3-0.3,0.5
		c0-0.2,0-0.3,0-0.5c0-2.3-1-4.2-2.3-5.8c-1.3-1.9-2.3-4.2-0.6-6.5c0.3-0.3,0.3-1,0.3-1.3c-0.6-1.6-1-3.2-1.9-4.5
		c-1.3-2.6-2.9-5.2-2.9-8.1c0-0.3,0-0.6,0-0.6c-0.3-0.3-0.6-1-1.3-1c-0.3,0-1,0.3-1.3,0.6c-0.3,0.3-0.6,1-0.3,1.6
		c1,3.9-0.6,7.5-1.9,11c-1,2.6-1.9,5.5-1.6,8.4c0,0.3,0,1-0.3,1.3c0,0.3-0.6,0.6-1,0.6c-0.3,0-1-0.3-1-0.6c-0.6-1-1.3-1.9-1.9-3.2
		c-0.3,0.3-1,0.6-1,1l-0.9,2.8c-0.3-0.2-0.7-0.4-1-0.5c-0.3,0-0.3-0.3-0.3-0.6c2.6-2.9,0.6-4.9-0.6-7.5c-1.6-2.6-5.8-3.6-4.5-8.1
		c0.3-1.3-1.3-3.2-2.6-4.5c-0.6-0.6-2.3,0-3.6,0c0,2.3-3.2,3.6-1.6,6.2c0.3,0.3-0.3,1-0.6,1.6c-1.6,1.9-3.9,3.9-5.2,6.2
		c-0.8,1.2-1.5,2.8-1.2,4.2c-2,0.9-4.1,1.2-6.2,0.7c-2.9-0.6-3.9-3.6-1.9-5.2c1.3-1.3,2.3-2.3,3.2-3.6c1.3-1.9,1.9-3.9,1.9-6.2
		c-0.3-1.9-1.3-2.3-3.2-1.3c-1,0.6-2.3,1.3-3.2,1.6c-1.6,0.6-2.9,0-2.9-1.3c0-0.6,0.6-1.6,1.3-2.3c1.9-1.3,2.3-2.9,1.6-4.5
		c-1-2.3-1.6-4.5,0.3-7.1c0.3-0.3,0-1.3-0.6-1.6c-0.3-0.3-1.3-0.3-1.9-0.3c-0.6,0-1.6,0.3-2.3,0.3c-1.3,0.3-2.3,0-2.6-1
		c-0.3-1-0.3-2.3-0.6-3.2c-1-2.6-2.6-4.9-5.8-6.2c-1-0.3-1.9-0.3-2.6,0.6c-0.6,1-1,1.9-1.3,3.2c-1.3,2.9-2.9,6.2-7.8,6.8
		c-2.3,0.3-2.6,1-2.3,2.6c0.3,1.3,0.3,2.3,0.6,3.6c0.3,1.6,0,2.6-1.6,3.6c-0.6,0.3-1,0.6-1.3,1.3c-1,1.6-1.6,3.2-2.3,5.2
		c-0.6,1.3-1,2.6-2.3,3.2c-2.3,1.3-4.5,2.3-7.1,3.2c-1.3,0.3-1.6,1-1.6,1.9c0.3,2.9,2.3,5.2,4.5,7.5c1.9,1.6,1.6,1.9-0.6,3.2
		c-0.3,0-0.6,0.3-1,0.3c-1.9,0.6-4.2,1.3-6.2,1.9c-1,0.3-1.9,0.6-1.9,1.6c0,1.3,0.3,2.6,0.6,3.9c1,1.6,2.3,2.9,3.2,4.5
		c0.6,1,1.6,2.3,1,3.6c-1.3,2.9-3.9,5.2-6.2,7.5c-0.2,0.2-0.8,0.3-1.1,0.3c-0.1-0.8,0-1.7,0.2-2.6c1-4.5-1.3-7.5-5.2-9.4
		c-0.3,0-0.3-0.3-0.3-0.6c2.6-2.9,0.6-4.9-0.6-7.5c-1.6-2.6-5.8-3.6-4.5-8.1c0.3-1.3-1.3-3.2-2.6-4.5c-0.6-0.6-2.3,0-3.6,0
		c0,2.3-3.2,3.6-1.6,6.2c0.3,0.3-0.3,1-0.6,1.6c-0.1,0.1-0.1,0.1-0.2,0.2v7v18.1v12.5v28.9c5.3,0,10.5-0.2,15.8-0.4l-0.1,0.1
		c18.2-1,36.3-2.9,54.8-5.2c0,0,0-0.1,0-0.1C251.7,910.2,254.7,909.8,257.8,909.4z"/>
	<linearGradient id="XMLID_102_" gradientUnits="userSpaceOnUse" x1="417.0588" y1="801.8293" x2="417.0588" y2="1342.0916">
		<stop  offset="0" style="stop-color:#6B42A9"/>
		<stop  offset="0.995" style="stop-color:#BEACCE"/>
	</linearGradient>
	<path id="XMLID_51_" fill-rule="evenodd" clip-rule="evenodd" fill="url(#XMLID_102_)" d="M178.1,881.4
		c123.7,22.9,294.8,47.3,477.9,51.9v11.9v19.9v9.1v6v0.5v0.1v5.8v1.2v10v5.4c-162.3-0.2-321.8,4.5-477.9,15.2v-13.1v-7.5v-15.9v-2.1
		v-0.5v-7.8v-1v-31.7v-51.3V881.4z"/>
	<linearGradient id="XMLID_103_" gradientUnits="userSpaceOnUse" x1="417.0588" y1="1041.8533" x2="417.0588" y2="628.0185">
		<stop  offset="0" style="stop-color:#6B42A9"/>
		<stop  offset="0.995" style="stop-color:#BEACCE"/>
	</linearGradient>
	<path id="XMLID_50_" fill-rule="evenodd" clip-rule="evenodd" fill="url(#XMLID_103_)" d="M656,1011
		c-159.8,0.3-319.1,4.2-477.9,12.1v-17.8v-7.5v-15.9v-2.1v-0.5v-7.8v-1v-31.7v-45.9c109-5.8,243-10.5,383.8-9.3
		c31.3,2.6,62.8,5.4,94.1,8.4v31.5v1.5v5.3v15v19.9v9.1v6v0.5v0.1v5.8v1.2v10V1011z"/>
	<linearGradient id="XMLID_105_" gradientUnits="userSpaceOnUse" x1="226.0574" y1="1599" x2="226.0574" y2="665.8998">
		<stop  offset="0" style="stop-color:#6B42A9"/>
		<stop  offset="0.995" style="stop-color:#BEACCE"/>
	</linearGradient>
	<path id="XMLID_49_" fill-rule="evenodd" clip-rule="evenodd" fill="url(#XMLID_105_)" d="M178.1,1110c33.6,2.9,65.4,7.1,95.9,12.4
		h-95.9v-10.2v-0.2V1110z"/>
	<path id="XMLID_48_" fill-rule="evenodd" clip-rule="evenodd" fill="#575552" d="M465.4,244.4H364.5c-2,0-3.5-1.6-3.5-3.5
		c0-2,1.6-3.5,3.5-3.5h100.9c2,0,3.5,1.6,3.5,3.5C468.9,242.9,467.4,244.4,465.4,244.4"/>
	<path id="XMLID_47_" fill-rule="evenodd" clip-rule="evenodd" fill="#696765" d="M452.4,244.4h-87.9c-2,0-3.5-1.6-3.5-3.5
		c0-2,1.6-3.5,3.5-3.5h90.1L452.4,244.4z"/>
	<path fill-rule="evenodd" clip-rule="evenodd" fill="#FFFFFF" d="M415.1,1092.6c-0.4,4.7-2.5,6.1,2.9,6c1.8-0.1,1.8-0.9,1.5-2.7
		c-0.2-1.1-0.8-2.8-0.2-3.6c0.7-0.9,1.5-1.2,1.3-3.2c-0.6-4.4-7.2-3.9-7,0.6C413.6,1091.4,414.3,1092,415.1,1092.6 M411.8,1079.9
		h10.5v-7.7c0-2.9-2.4-5.3-5.3-5.3s-5.3,2.4-5.3,5.3V1079.9z M405.4,1079.9c-5.3-0.2-6.2,0.8-6.2,5.9c0,4.1,0,8.2,0,12.4
		c0,4.9-0.2,6.7,5.5,6.6l24.5,0c2.5,0,3.5,0.2,4.9-1.3c1.2-1.3,0.8-3.3,0.8-5.4c0-4,0-8.1,0-12.1c0-2.4,0.4-3.6-1.1-5.1
		c-1.4-1.4-2.9-1.1-5.2-1c0-5,0.5-9.1-2-12.8c-5-7.3-15.4-6.3-19.3,0C404.8,1071.5,405.5,1074.3,405.4,1079.9z"/>
	
		<text id="XMLID_785_" transform="matrix(1 0 0 1 263.271 514.67)" fill="#FFFFFF" font-family="'Roboto-Thin'" font-size="129.9332px">19:45</text>
	<g id="XMLID_25_">
		
			<text id="XMLID_37_" transform="matrix(1 0 0 1 299.2032 568.2144)" fill="#FFFFFF" font-family="'Roboto-Light'" font-size="27.1374px" letter-spacing="2">SAT, 18 AUG 2018</text>
	</g>
	<g id="XMLID_138_">
		
			<text id="XMLID_156_" transform="matrix(1 0 0 1 792.0547 609.8389)" fill="#FFFFFF" font-family="'Roboto-Regular'" font-size="23.2586px" letter-spacing="2">18 AUGUST 2018</text>
	</g>
	<g id="XMLID_64_">
		
			<text id="XMLID_97_" transform="matrix(1 0 0 1 792.5391 693.8389)" fill="#FFFFFF" font-family="'Roboto-Regular'" font-size="23.2586px" letter-spacing="2">SUNDAY</text>
	</g>
	<g id="XMLID_65_">
		
			<text id="XMLID_96_" transform="matrix(1 0 0 1 792.5391 761.1279)" fill="#FFFFFF" font-family="'Roboto-Regular'" font-size="23.2586px" letter-spacing="2">MONDAY</text>
	</g>
	<g id="XMLID_66_">
		
			<text id="XMLID_95_" transform="matrix(1 0 0 1 792.5391 827.6882)" fill="#FFFFFF" font-family="'Roboto-Regular'" font-size="23.2586px" letter-spacing="2">TUESDAY</text>
	</g>
	<g id="XMLID_67_">
		
			<text id="XMLID_98_" transform="matrix(1 0 0 1 792.5391 894.2233)" fill="#FFFFFF" font-family="'Roboto-Regular'" font-size="23.2586px" letter-spacing="2">WEDNESDAY</text>
	</g>
	<g id="XMLID_68_">
		
			<text id="XMLID_101_" transform="matrix(1 0 0 1 792.5391 962.5384)" fill="#FFFFFF" font-family="'Roboto-Regular'" font-size="23.2586px" letter-spacing="2">THURSDAY</text>
	</g>
	<g id="XMLID_69_">
		
			<text id="XMLID_104_" transform="matrix(1 0 0 1 792.5391 1033.5801)" fill="#FFFFFF" font-family="'Roboto-Regular'" font-size="23.2586px" letter-spacing="2">FRIDAY</text>
	</g>
	<g id="XMLID_139_">
		
			<text id="XMLID_157_" transform="matrix(1 0 0 1 1091.4382 609.8389)" fill="#FFFFFF" font-family="'Roboto-Regular'" font-size="23.2586px" letter-spacing="2">CLEAR</text>
	</g>
	<g id="XMLID_136_">
		
			<text id="XMLID_159_" transform="matrix(1 0 0 1 793.127 436.1972)" fill="#FFFFFF" font-family="'Roboto-Regular'" font-size="32.7604px" letter-spacing="3">SATURDAY</text>
	</g>
	<g id="XMLID_20_">
		
			<text id="XMLID_36_" transform="matrix(1 0 0 1 340.4873 707.9219)" fill="#FFFFFF" font-family="'Roboto-Light'" font-size="22.4455px" letter-spacing="2">STOCKHOLM</text>
	</g>
	<g id="XMLID_15_">
		
			<text id="XMLID_35_" transform="matrix(1 0 0 1 390.5807 966.8594)" fill="#FFFFFF" font-family="'Roboto-Light'" font-size="88.6221px" letter-spacing="8">8</text>
	</g>
	
		<path id="XMLID_31_" fill-rule="evenodd" clip-rule="evenodd" fill="none" stroke="#FFFFFF" stroke-width="4" stroke-linecap="round" stroke-linejoin="round" stroke-miterlimit="10" d="
		M437.6,819.8c0.8,0,1.7,0,2.5-0.1c-5.6,3.8-12.5,5.8-19.9,5.2c-15.1-1.2-27.3-13.5-28.4-28.7c-1.3-18.1,13.1-33.3,30.9-33.3
		c6.4,0,12.4,2,17.3,5.3c-0.1,0-0.1,0-0.2,0c-13.8-1.2-26.4,8.9-28,22.6C410.1,806.5,422.3,819.8,437.6,819.8z"/>
	
		<path id="XMLID_137_" fill-rule="evenodd" clip-rule="evenodd" fill="none" stroke="#FFFFFF" stroke-width="4" stroke-linecap="round" stroke-linejoin="round" stroke-miterlimit="10" d="
		M1154.3,549c0.9,0,1.8,0,2.6-0.1c-5.9,4-13.2,6.1-21.1,5.5c-16.1-1.3-29-14.3-30.1-30.4c-1.4-19.3,13.9-35.3,32.8-35.3
		c6.8,0,13.1,2.1,18.4,5.6c-0.1,0-0.1,0-0.2,0c-14.6-1.3-28,9.4-29.7,24C1125.1,534.9,1138,549,1154.3,549z"/>
	<g id="XMLID_90_">
		<path id="XMLID_91_" fill="#FFFFFF" d="M1161.1,699.8c-0.4,0-0.8,0-1.1,0c-6.7-0.5-12.2-6-12.7-12.8c-0.3-3.9,1-7.6,3.7-10.4
			c2.6-2.8,6.3-4.4,10.1-4.4c2.8,0,5.4,0.8,7.7,2.4c0.4,0.2,0.5,0.7,0.4,1.1c-0.1,0.4-0.5,0.7-1,0.6l-0.1,0
			c-5.2-0.5-10,3.4-10.6,8.6c-0.3,2.8,0.5,5.6,2.4,7.7c1.9,2.1,4.5,3.3,7.3,3.3c0.3,0,0.6,0,0.9,0c0.4,0,0.8,0.2,1,0.6
			c0.1,0.4,0,0.9-0.4,1.1C1166.5,699,1163.9,699.8,1161.1,699.8z M1161.1,674.1c-3.3,0-6.5,1.4-8.7,3.8c-2.3,2.4-3.4,5.6-3.2,9
			c0.4,5.8,5.1,10.6,10.9,11c1.6,0.1,3.1,0,4.6-0.5c-2.4-0.5-4.5-1.8-6.2-3.6c-2.2-2.5-3.3-5.8-2.9-9.2c0.6-5,4.3-8.9,9-10
			C1163.5,674.3,1162.3,674.1,1161.1,674.1z"/>
	</g>
	<g id="XMLID_128_">
		<path id="XMLID_129_" fill="#FFFFFF" d="M1161.1,767.1c-0.4,0-0.8,0-1.1,0c-6.7-0.5-12.2-6-12.7-12.8c-0.3-3.9,1-7.6,3.7-10.4
			c2.6-2.8,6.3-4.4,10.1-4.4c2.8,0,5.4,0.8,7.7,2.4c0.4,0.2,0.5,0.7,0.4,1.1c-0.1,0.4-0.5,0.7-1,0.6l-0.1,0
			c-5.2-0.5-10,3.4-10.6,8.6c-0.3,2.8,0.5,5.6,2.4,7.7c1.9,2.1,4.5,3.3,7.3,3.3c0.3,0,0.6,0,0.9,0c0.4,0,0.8,0.2,1,0.6
			c0.1,0.4,0,0.9-0.4,1.1C1166.5,766.3,1163.9,767.1,1161.1,767.1z M1161.1,741.4c-3.3,0-6.5,1.4-8.7,3.8c-2.3,2.4-3.4,5.6-3.2,9
			c0.4,5.8,5.1,10.6,10.9,11c1.6,0.1,3.1,0,4.6-0.5c-2.4-0.5-4.5-1.8-6.2-3.6c-2.2-2.5-3.3-5.8-2.9-9.2c0.6-5,4.3-8.9,9-10
			C1163.5,741.5,1162.3,741.4,1161.1,741.4z"/>
	</g>
	
		<circle id="XMLID_14_" fill-rule="evenodd" clip-rule="evenodd" fill="none" stroke="#FFFFFF" stroke-width="4" stroke-miterlimit="10" cx="453.5" cy="910.8" r="8.4"/>
	<g id="XMLID_142_">
		
			<text id="XMLID_942_" transform="matrix(1 0 0 1 786.749 561.3178)" fill="#FFFFFF" font-family="'Roboto-Thin'" font-size="131.4552px" letter-spacing="13">8</text>
	</g>
	
		<circle id="XMLID_141_" fill-rule="evenodd" clip-rule="evenodd" fill="none" stroke="#FFFFFF" stroke-width="4" stroke-miterlimit="10" cx="872.4" cy="478.7" r="10"/>
	<g id="XMLID_17_">
		<g id="XMLID_21_">
			<path id="XMLID_29_" fill="#FFFFFF" d="M1140.6,824.2c-0.2,0-0.5-0.1-0.6-0.3c-2-2-3.2-4.6-3.4-7.4c-0.2-3.3,0.9-6.5,3.1-8.9
				c2.2-2.4,5.4-3.8,8.6-3.8c2.4,0,4.6,0.7,6.6,2c0.3,0.2,0.5,0.7,0.3,1c-0.1,0.4-0.5,0.6-0.9,0.6l0-0.8l0,0l-0.1,0.8
				c-4.4-0.4-8.3,2.8-8.9,7.2c-0.2,1.9,0.2,3.8,1.3,5.4c0.3,0.4,0.2,1-0.3,1.2c-0.4,0.3-1,0.2-1.2-0.3c-1.3-2-1.8-4.3-1.5-6.6
				c0.5-4.1,3.5-7.4,7.4-8.4c-0.9-0.2-1.8-0.4-2.7-0.4c-2.8,0-5.4,1.2-7.3,3.2c-1.9,2.1-2.9,4.7-2.7,7.5c0.2,2.4,1.2,4.6,2.9,6.3
				c0.3,0.3,0.3,0.9,0,1.3C1141.1,824.1,1140.9,824.2,1140.6,824.2z"/>
		</g>
		<g id="XMLID_19_">
			<path id="XMLID_24_" fill="#FFFFFF" d="M1167.2,837.2H1147c-4,0-7.3-3.3-7.3-7.3c0-4,3.3-7.3,7.3-7.3c0.2,0,0.3,0,0.5,0
				c0,0,0,0,0-0.1c0-5.7,4.6-10.3,10.3-10.3c4.4,0,8.3,2.8,9.7,6.9c4.9,0.1,8.8,4.1,8.8,9C1176.2,833.2,1172.1,837.2,1167.2,837.2z
				 M1147,824.3c-3.1,0-5.6,2.5-5.6,5.6c0,3.1,2.5,5.6,5.6,5.6h20.2c4,0,7.2-3.2,7.2-7.2c0-4-3.2-7.2-7.2-7.2c-0.1,0-0.2,0-0.2,0
				l-0.1,0c-0.4,0-0.8-0.3-0.9-0.7c-1-3.7-4.4-6.3-8.2-6.3c-4.7,0-8.5,3.8-8.5,8.5c0,0.3,0,0.6,0.1,1c0,0.3-0.1,0.6-0.3,0.8
				c-0.2,0.2-0.5,0.3-0.8,0.2C1147.8,824.4,1147.4,824.3,1147,824.3z"/>
		</g>
	</g>
	<g id="XMLID_84_">
		<g id="XMLID_85_">
			<path id="XMLID_909_" fill="#FFFFFF" d="M1167.2,1035.9H1147c-4,0-7.3-3.3-7.3-7.3c0-4,3.3-7.3,7.3-7.3c0.2,0,0.3,0,0.5,0
				c0,0,0,0,0-0.1c0-5.7,4.6-10.3,10.3-10.3c4.4,0,8.3,2.8,9.7,6.9c4.9,0.1,8.8,4.1,8.8,9
				C1176.2,1031.9,1172.1,1035.9,1167.2,1035.9z M1147,1023c-3.1,0-5.6,2.5-5.6,5.6c0,3.1,2.5,5.6,5.6,5.6h20.2c4,0,7.2-3.2,7.2-7.2
				c0-4-3.2-7.2-7.2-7.2c-0.1,0-0.2,0-0.2,0l-0.1,0c-0.4,0-0.8-0.3-0.9-0.7c-1-3.7-4.4-6.3-8.2-6.3c-4.7,0-8.5,3.8-8.5,8.5
				c0,0.3,0,0.6,0.1,1c0,0.3-0.1,0.6-0.3,0.8c-0.2,0.2-0.5,0.3-0.8,0.2C1147.8,1023.1,1147.4,1023,1147,1023z"/>
		</g>
	</g>
	<g id="XMLID_82_">
		<g id="XMLID_907_">
			<path id="XMLID_908_" fill="#FFFFFF" d="M1140.6,958.8c-0.2,0-0.5-0.1-0.6-0.3c-2-2-3.2-4.6-3.4-7.4c-0.2-3.3,0.9-6.5,3.1-8.9
				c2.2-2.4,5.4-3.8,8.6-3.8c2.4,0,4.6,0.7,6.6,2c0.3,0.2,0.5,0.7,0.3,1c-0.1,0.4-0.5,0.6-0.9,0.6l0-0.8l0,0l-0.1,0.8
				c-4.4-0.4-8.3,2.8-8.9,7.2c-0.2,1.9,0.2,3.8,1.3,5.4c0.3,0.4,0.2,1-0.3,1.2c-0.4,0.3-1,0.2-1.2-0.3c-1.3-2-1.8-4.3-1.5-6.6
				c0.5-4.1,3.5-7.4,7.4-8.4c-0.9-0.2-1.8-0.4-2.7-0.4c-2.8,0-5.4,1.2-7.3,3.2c-1.9,2.1-2.9,4.7-2.7,7.5c0.2,2.4,1.2,4.6,2.9,6.3
				c0.3,0.3,0.3,0.9,0,1.3C1141.1,958.7,1140.9,958.8,1140.6,958.8z"/>
		</g>
		<g id="XMLID_83_">
			<path id="XMLID_86_" fill="#FFFFFF" d="M1167.2,971.8H1147c-4,0-7.3-3.3-7.3-7.3c0-4,3.3-7.3,7.3-7.3c0.2,0,0.3,0,0.5,0
				c0,0,0,0,0-0.1c0-5.7,4.6-10.3,10.3-10.3c4.4,0,8.3,2.8,9.7,6.9c4.9,0.1,8.8,4.1,8.8,9C1176.2,967.7,1172.1,971.8,1167.2,971.8z
				 M1147,958.9c-3.1,0-5.6,2.5-5.6,5.6c0,3.1,2.5,5.6,5.6,5.6h20.2c4,0,7.2-3.2,7.2-7.2c0-4-3.2-7.2-7.2-7.2c-0.1,0-0.2,0-0.2,0
				l-0.1,0c-0.4,0-0.8-0.3-0.9-0.7c-1-3.7-4.4-6.3-8.2-6.3c-4.7,0-8.5,3.8-8.5,8.5c0,0.3,0,0.6,0.1,1c0,0.3-0.1,0.6-0.3,0.8
				c-0.2,0.2-0.5,0.3-0.8,0.2C1147.8,958.9,1147.4,958.9,1147,958.9z"/>
		</g>
	</g>
	<g id="XMLID_42_">
		<g id="XMLID_40_">
			<g id="XMLID_41_">
				<path id="XMLID_859_" fill="#FFFFFF" d="M1167.2,894.2h-3.6c-0.5,0-0.9-0.4-0.9-0.9c0-0.5,0.4-0.9,0.9-0.9h3.6
					c4,0,7.3-3.3,7.3-7.3s-3.3-7.3-7.3-7.3c-0.1,0-0.2,0-0.2,0l-0.1,0c-0.4,0-0.8-0.2-0.9-0.7c-1-3.7-4.4-6.3-8.2-6.3
					c-4.7,0-8.5,3.8-8.5,8.5c0,0.3,0,0.6,0.1,1c0,0.3-0.1,0.6-0.3,0.8c-0.2,0.2-0.5,0.3-0.8,0.2c-0.4-0.1-0.8-0.1-1.2-0.1
					c-3.1,0-5.6,2.5-5.6,5.6s2.5,5.6,5.6,5.6h6.4c0.5,0,0.9,0.4,0.9,0.9c0,0.5-0.4,0.9-0.9,0.9h-6.4c-4,0-7.3-3.3-7.3-7.3
					c0-4.2,3.6-7.6,7.8-7.3c0,0,0,0,0-0.1c0-5.7,4.6-10.3,10.3-10.3c4.4,0,8.3,2.8,9.7,6.9c4.9,0.1,8.8,4.1,8.8,9
					C1176.2,890.2,1172.1,894.2,1167.2,894.2z"/>
			</g>
		</g>
		<g id="XMLID_23_">
			<path id="XMLID_88_" fill="#FFFFFF" d="M1154.6,908.8c-0.1,0-0.3,0-0.4-0.1c-0.4-0.2-0.6-0.7-0.5-1.1l2.5-7.3h-1.8
				c-0.3,0-0.6-0.2-0.8-0.4c-0.2-0.3-0.2-0.6,0-0.9l6.4-11c0.2-0.4,0.7-0.5,1.1-0.4c0.4,0.2,0.6,0.6,0.5,1.1l-2,6.9l2.4-0.1
				c0,0,0,0,0,0c0.3,0,0.6,0.2,0.8,0.4c0.2,0.3,0.1,0.6,0,0.9l-7.4,11.5C1155.2,908.6,1154.9,908.8,1154.6,908.8z"/>
		</g>
	</g>
	
		<line id="XMLID_18_" fill-rule="evenodd" clip-rule="evenodd" fill="none" stroke="#FFFFFF" stroke-miterlimit="10" x1="792.5" y1="718.8" x2="1174.4" y2="718.8"/>
	
		<line id="XMLID_22_" fill-rule="evenodd" clip-rule="evenodd" fill="none" stroke="#FFFFFF" stroke-miterlimit="10" x1="792.5" y1="785.6" x2="1174.4" y2="785.6"/>
	
		<line id="XMLID_30_" fill-rule="evenodd" clip-rule="evenodd" fill="none" stroke="#FFFFFF" stroke-miterlimit="10" x1="792.5" y1="852.4" x2="1174.4" y2="852.4"/>
	
		<line id="XMLID_34_" fill-rule="evenodd" clip-rule="evenodd" fill="none" stroke="#FFFFFF" stroke-miterlimit="10" x1="792.5" y1="919.2" x2="1174.4" y2="919.2"/>
	
		<line id="XMLID_38_" fill-rule="evenodd" clip-rule="evenodd" fill="none" stroke="#FFFFFF" stroke-miterlimit="10" x1="792.5" y1="986" x2="1174.4" y2="986"/>
</g>
</svg>
