<?xml version="1.0" encoding="utf-8"?>
<!-- Generator: Adobe Illustrator 21.0.0, SVG Export Plug-In . SVG Version: 6.00 Build 0)  -->
<svg version="1.1" id="Layer_1" xmlns="http://www.w3.org/2000/svg" xmlns:xlink="http://www.w3.org/1999/xlink" x="0px" y="0px"
	 width="3000px" height="2000px" viewBox="0 0 3000 2000" style="enable-background:new 0 0 3000 2000;" xml:space="preserve">
<style type="text/css">
	.st0{fill-rule:evenodd;clip-rule:evenodd;fill:#4E5566;}
	.st1{fill-rule:evenodd;clip-rule:evenodd;fill:#565D6E;}
	.st2{fill-rule:evenodd;clip-rule:evenodd;fill:#5A6173;}
	.st3{fill-rule:evenodd;clip-rule:evenodd;fill:#444A59;}
	.st4{fill-rule:evenodd;clip-rule:evenodd;fill:#99FFFF;}
	.st5{fill-rule:evenodd;clip-rule:evenodd;fill:#3E424D;}
	.st6{fill-rule:evenodd;clip-rule:evenodd;fill:#FFFFFF;}
	.st7{fill-rule:evenodd;clip-rule:evenodd;fill:#C9709E;}
	.st8{fill-rule:evenodd;clip-rule:evenodd;fill:#E6E6E6;}
	.st9{fill-rule:evenodd;clip-rule:evenodd;fill:#E9A2CA;}
</style>
<g>
	<rect x="0.5" y="0.5" class="st0" width="3000" height="2000"/>
	<g>
		<g>
			<path class="st1" d="M557.9,258H2708v3.5c-197.7,216.3-337.4,506.9-375,826.5c-25,212.6-1.8,412.3,59.8,585.9H873.1
				c61.5-173.6,84.8-373.4,59.8-585.9c-37.6-319.6-177.3-610.2-375-826.5V258z"/>
			<path class="st2" d="M253,258h429.9v3.5c197.7,216.3,337.4,506.9,375,826.5c25,212.6,1.8,412.3-59.8,585.9H568.2
				c61.5-173.6,84.8-373.4,59.8-585.9c-37.6-319.6-177.3-610.2-375-826.5V258z"/>
			<path class="st2" d="M2708,258h-429.9v3.5c-197.7,216.3-337.4,506.9-375,826.5c-25,212.6-1.8,412.3,59.8,585.9h429.9
				c-61.5-173.6-84.8-373.4-59.8-585.9c37.6-319.6,177.3-610.2,375-826.5V258z"/>
		</g>
		<ellipse class="st1" cx="1500.5" cy="303.7" rx="1320" ry="149.6"/>
	</g>
	<path class="st3" d="M1946.7,1023.2v8.1l0.3,0c36.7,0,66.4,29.7,66.4,66.4c0,16-5.7,30.7-15.1,42.1c-0.8,1.5-1.7,2.9-2.6,4.3
		l-73.9,110.8c-2.7,4.8-6.2,9.1-10.6,13c-21.5,19.1-54.3,17.2-73.4-4.3l-18.2-20.5v39.3c0,20.2-5.7,39.1-15.5,55.3
		c3.7,10.3,5.8,21.4,5.8,33c0,4.2-0.3,8.4-0.8,12.4l26,245.8h-103.8l-11.8-111.5v111.5h-103.8v-258.2v-17.4h1.6
		c1-5.4,2.4-10.6,4.2-15.6c-9.8-16.2-15.5-35.1-15.5-55.3V1269l-21.6,24.3c-19.1,21.5-52,23.4-73.4,4.3c-2.5-2.2-4.7-4.6-6.7-7.2
		l-84.8-100.3c-14-12.2-22.8-30.1-22.8-50.1c0-25.8,14.7-48.2,36.2-59.2V1056c-3.7-5.2-5.9-11.5-5.9-18.3
		c0-17.5,14.2-31.6,31.6-31.6c17.5,0,31.6,14.2,31.6,31.6c0,5.9-1.6,11.3-4.4,16v23.9c25.4,9.3,43.5,33.7,43.5,62.4
		c0,5.8-0.7,11.4-2.1,16.7l19.1,22.6l59.5-66.9v-4.4c0-22,18-40,40-40h1.1v-9.6c0-4.1,2.1-7.8,5.2-9.9
		c-31.2-10.8-55.1-37.6-61.6-70.5h-18.7h-4.2h-11.7c-6.9,0-12.5-5.6-12.5-12.5V881c0-6.9,5.6-12.5,12.5-12.5h11.7h4.2h21.5l0.1-0.3
		c-10.3-10.2-16.7-24.3-16.7-39.8v0c0-30.7,25.2-55.9,55.9-55.9h48.2c1.4,0,2.8,0.1,4.1,0.2c6.6-1.7,13.4-2.5,20.5-2.5
		c9.9,0,19.5,1.8,28.4,5c9.2,3.3,17.7,8.3,25.1,14.4c4.8,4,5.8,10.9,2.6,16.1c21.1,13.6,35.2,37.3,35.2,64.1v30.1h0.2
		c6,0,10.9,4.9,10.9,10.9v16.8c0,6-4.9,10.9-10.9,10.9h-0.3c-0.2,16.2-5.6,31.2-14.5,43.5l1.6,65.2c4.3,1.9,7.4,6.2,7.4,11.1v11.3
		c9.1,2.7,16.8,8.6,21.9,16.3c6.6,2.9,12.7,7.2,17.7,13l40.2,45.2l14.5-21.8c-3.1-7.7-4.8-16-4.8-24.8c0-14.8,4.8-28.5,13-39.5
		v-32.7c-3.7-5.2-5.9-11.5-5.9-18.3c0-17.5,14.2-31.6,31.6-31.6c17.5,0,31.6,14.2,31.6,31.6C1951,1013,1949.4,1018.5,1946.7,1023.2z
		"/>
	<g>
		<path class="st2" d="M1646.2,358.8L1646.2,358.8c-2.8,0-5.1,2.3-5.1,5.1v1304.5c0,2.8,2.3,5.1,5.1,5.1h0c2.8,0,5.1-2.3,5.1-5.1
			V363.9C1651.3,361.1,1649,358.8,1646.2,358.8z"/>
		<path class="st4" d="M1616.5,358.8L1616.5,358.8c-2.8,0-5.1,2.3-5.1,5.1v1304.5c0,2.8,2.3,5.1,5.1,5.1h0c2.8,0,5.1-2.3,5.1-5.1
			V363.9C1621.7,361.1,1619.3,358.8,1616.5,358.8z"/>
	</g>
	<path class="st2" d="M1070.5,347.8L1070.5,347.8c5.5,0,10,4.5,10,10v1294.8c0,5.5-4.5,10-10,10h0c-5.5,0-10-4.5-10-10V357.8
		C1060.5,352.2,1065,347.8,1070.5,347.8z"/>
	<path class="st4" d="M1128.2,347.8L1128.2,347.8c5.5,0,10,4.5,10,10v1294.8c0,5.5-4.5,10-10,10h0c-5.5,0-10-4.5-10-10V357.8
		C1118.2,352.2,1122.7,347.8,1128.2,347.8z"/>
	<ellipse class="st2" cx="1475" cy="1732.5" rx="1265.5" ry="114.5"/>
	<ellipse class="st5" cx="1475" cy="1698" rx="1105.5" ry="100"/>
	<g>
		<path class="st6" d="M1695.6,821L1695.6,821c14.6,0,26.5,11.9,26.5,26.5v93.4c0,14.6-11.9,26.5-26.5,26.5h0
			c-14.6,0-26.5-11.9-26.5-26.5v-93.4C1669.1,832.9,1681,821,1695.6,821z"/>
		<circle class="st4" cx="1694.9" cy="831.5" r="31.6"/>
		<path class="st6" d="M1234.9,851.5L1234.9,851.5c14.6,0,26.5,11.9,26.5,26.5v93.4c0,14.6-11.9,26.5-26.5,26.5h0
			c-14.6,0-26.5-11.9-26.5-26.5V878C1208.3,863.4,1220.3,851.5,1234.9,851.5z"/>
		<circle class="st4" cx="1234.1" cy="862" r="31.6"/>
		<path class="st7" d="M1684.9,910.7c16-23.8,48.2-30.2,72-14.2c23.8,16,30.2,48.2,14.2,72l-75.9,113.8c-16,23.8-48.2,30.2-72,14.2
			c-23.8-16-30.2-48.2-14.2-72L1684.9,910.7z"/>
		<circle class="st7" cx="1722.5" cy="922" r="66.4"/>
		<path class="st8" d="M1528.4,992.6c-19.1-21.5-17.2-54.3,4.3-73.4c21.5-19.1,54.3-17.2,73.4,4.3l84.8,95.4
			c19.1,21.5,17.2,54.3-4.3,73.4c-21.5,19.1-54.3,17.2-73.4-4.3L1528.4,992.6z"/>
		<path class="st9" d="M1192.4,1011.6c-18.5-21.9-15.8-54.7,6.1-73.2c21.9-18.5,54.7-15.8,73.2,6.1l88.8,105.1
			c18.5,21.9,15.8,54.7-6.1,73.2c-21.9,18.5-54.7,15.8-73.2-6.1L1192.4,1011.6z"/>
		<polygon class="st5" points="1581.4,1177.7 1477.5,1177.7 1528.3,1658 1632.1,1658 		"/>
		<rect x="1391.1" y="1177.7" class="st5" width="103.8" height="480.3"/>
		<circle class="st5" cx="1488.2" cy="1195.1" r="97.1"/>
		<path class="st9" d="M1458.2,627.8L1458.2,627.8c-51.7,0-94,42.3-94,94V784c0,51.7,42.3,94,94,94h0c51.7,0,94-42.3,94-94v-62.3
			C1552.1,670.1,1509.8,627.8,1458.2,627.8z"/>
		<path class="st7" d="M1492.1,738L1492.1,738c-33,0-60,27-60,60v100c0,33,27,60,60,60l0,0c33,0,60-27,60-60V798
			C1552.1,765,1525.1,738,1492.1,738z"/>
		<path class="st5" d="M1496,618h-7.7c-41.9,0-76.2,34.3-76.2,76.2v67.7c0,41.9,34.3,76.2,76.2,76.2h7.7c41.9,0,76.2-34.3,76.2-76.2
			v-67.7C1572.1,652.3,1537.9,618,1496,618z"/>
		<path class="st5" d="M1456.2,596.9H1408c-30.7,0-55.9,25.2-55.9,55.9v0c0,30.7,25.2,55.9,55.9,55.9h48.2
			c30.7,0,55.9-25.2,55.9-55.9v0C1512.1,622,1487,596.9,1456.2,596.9z"/>
		<path class="st5" d="M1446,632h-4.7c-25.4,0-46.2,20.8-46.2,46.2v24.5c0,25.4,20.8,46.2,46.2,46.2h4.7c25.4,0,46.2-20.8,46.2-46.2
			v-24.5C1492.1,652.8,1471.4,632,1446,632z"/>
		<path class="st6" d="M1555,892.4h-133.7c-22,0-40,18-40,40v174.4c0,58.8,48.1,106.8,106.8,106.8l0,0
			c58.8,0,106.8-48.1,106.8-106.8V932.4C1595,910.4,1577,892.4,1555,892.4z"/>
		<path class="st6" d="M1554.4,870.7h-119.9c-6.7,0-12.1,5.4-12.1,12.1v21.5c0,6.7,5.4,12.1,12.1,12.1h119.9
			c6.7,0,12.1-5.4,12.1-12.1v-21.5C1566.5,876.1,1561,870.7,1554.4,870.7z"/>
		<path class="st6" d="M1393.3,923.4c19.1-21.5,52-23.4,73.4-4.3c21.5,19.1,23.4,52,4.3,73.4l-111.2,125.1
			c-19.1,21.5-52,23.4-73.4,4.3c-21.5-19.1-23.4-52-4.3-73.4L1393.3,923.4z"/>
		<path class="st6" d="M1572.4,724.3h-140.6c-6,0-10.9,4.9-10.9,10.9V752c0,6,4.9,10.9,10.9,10.9h140.6c6,0,10.9-4.9,10.9-10.9
			v-16.8C1583.3,729.2,1578.4,724.3,1572.4,724.3z"/>
		<path class="st5" d="M1370.3,692.8h-27.3c-11.8,0-21.5,9.7-21.5,21.5v66.5c0,11.8,9.7,21.5,21.5,21.5h27.3
			c11.8,0,21.5-9.7,21.5-21.5v-66.5C1391.8,702.5,1382.2,692.8,1370.3,692.8z"/>
		<path class="st6" d="M1347.3,692.8h-15.9c-6.9,0-12.5,5.6-12.5,12.5v84.4c0,6.9,5.6,12.5,12.5,12.5h15.9c6.9,0,12.5-5.6,12.5-12.5
			v-84.4C1359.8,698.5,1354.2,692.8,1347.3,692.8z"/>
		<path class="st4" d="M1336.8,712.1L1336.8,712.1c-2.6,0-4.8,2.2-4.8,4.8v64.5c0,2.6,2.2,4.8,4.8,4.8h0c2.6,0,4.8-2.2,4.8-4.8
			v-64.5C1341.6,714.2,1339.5,712.1,1336.8,712.1z"/>
		<path class="st6" d="M1534.3,613.9c5.3,4.4,6,12.2,1.6,17.5c-4.4,5.3-12.2,6-17.5,1.6c-5.2-4.3-11.2-7.8-17.7-10.2
			c-6.2-2.2-12.9-3.5-19.9-3.5c-16.2,0-30.9,6.6-41.5,17.3c-10.7,10.7-17.3,25.4-17.3,41.5v49.8c0,6.9-5.6,12.5-12.5,12.5
			c-6.9,0-12.5-5.6-12.5-12.5v-49.8c0-23.1,9.4-44,24.6-59.2c15.2-15.2,36.2-24.6,59.2-24.6c9.9,0,19.5,1.8,28.4,5
			C1518.4,602.8,1526.9,607.8,1534.3,613.9z"/>
		<circle class="st5" cx="1422.2" cy="750.7" r="47.3"/>
		<ellipse class="st6" cx="1404.6" cy="750.7" rx="39.2" ry="47.3"/>
		<ellipse class="st4" cx="1394.5" cy="751" rx="15.6" ry="27"/>
		<circle class="st9" cx="1238.5" cy="964.4" r="66.4"/>
		<path class="st6" d="M1682.4,1681.9c-2.3,0-4.2-1.9-4.2-4.2c0-2.3,1.9-4.2,4.2-4.2c13.9,0,22.3-5.2,25.9-12.2c1.5-3,2.2-6.4,2-9.8
			c-0.2-3.5-1.3-7.1-3.3-10.5c-5.5-9.4-17.8-16.9-36.2-16.2c-21.9,0.8-46.8,1.3-66.7-6c-20.7-7.6-35.8-23.2-36.6-54.5L1548,753
			c-0.1-2.3,1.8-4.2,4.1-4.2c2.3-0.1,4.2,1.8,4.2,4.1l19.5,811.3c0.7,27,13.5,40.4,31.1,46.9c18.5,6.8,42.4,6.3,63.5,5.5
			c21.9-0.8,36.7,8.5,43.7,20.3c2.6,4.5,4.1,9.4,4.4,14.2c0.3,4.9-0.6,9.7-2.8,14.1C1710.8,1674.7,1699.9,1681.9,1682.4,1681.9z"/>
	</g>
	<ellipse class="st4" cx="1500.5" cy="352.3" rx="820" ry="25.9"/>
	<g>
		<g>
			<g>
				<path class="st4" d="M2245.3,1241.9h-440.9c-9.5,0-15.5-7.8-13.3-17.3l7.7-33.4c2.2-9.5,11.8-17.3,21.3-17.3H2261
					c9.5,0,15.5,7.8,13.3,17.3l-7.7,33.4C2264.3,1234.1,2254.7,1241.9,2245.3,1241.9z"/>
				<path class="st4" d="M2225.9,1354.2H1785c-9.5,0-15.5-7.8-13.3-17.3l7.7-33.4c2.2-9.5,11.8-17.3,21.3-17.3h440.9
					c9.5,0,15.5,7.8,13.3,17.3l-7.7,33.4C2244.9,1346.4,2235.4,1354.2,2225.9,1354.2z"/>
				<path class="st6" d="M2225.9,1354.2H1785c-9.5,0-15.5-7.8-13.3-17.3l7.7-33.4c2.2-9.5,11.8-17.3,21.3-17.3h440.9
					c9.5,0,15.5,7.8,13.3,17.3l-7.7,33.4C2244.9,1346.4,2235.4,1354.2,2225.9,1354.2z"/>
				<path class="st6" d="M2384.6,1241.9H2320c-9.5,0-15.5-7.8-13.3-17.3l7.7-33.4c2.2-9.5,11.8-17.3,21.3-17.3h64.6
					c9.5,0,15.5,7.8,13.3,17.3l-7.7,33.4C2403.7,1234.1,2394.1,1241.9,2384.6,1241.9z"/>
			</g>
			<g>
				<g>
					<path class="st4" d="M2055.7,646.3h440.9c9.5,0,15.5,7.8,13.3,17.3l-7.7,33.4c-2.2,9.5-11.8,17.3-21.3,17.3H2040
						c-9.5,0-15.5-7.8-13.3-17.3l7.7-33.4C2036.7,654.1,2046.3,646.3,2055.7,646.3z"/>
					<path class="st4" d="M2075.1,534H2516c9.5,0,15.5,7.8,13.3,17.3l-7.7,33.4c-2.2,9.5-11.8,17.3-21.3,17.3h-440.9
						c-9.5,0-15.5-7.8-13.3-17.3l7.7-33.4C2056.1,541.8,2065.6,534,2075.1,534z"/>
					<path class="st6" d="M2075.1,534H2516c9.5,0,15.5,7.8,13.3,17.3l-7.7,33.4c-2.2,9.5-11.8,17.3-21.3,17.3h-440.9
						c-9.5,0-15.5-7.8-13.3-17.3l7.7-33.4C2056.1,541.8,2065.6,534,2075.1,534z"/>
					<path class="st6" d="M1916.4,646.3h64.6c9.5,0,15.5,7.8,13.3,17.3l-7.7,33.4c-2.2,9.5-11.8,17.3-21.3,17.3h-64.6
						c-9.5,0-15.5-7.8-13.3-17.3l7.7-33.4C1897.3,654.1,1906.9,646.3,1916.4,646.3z"/>
				</g>
				<g>
					<path class="st6" d="M2339.7,738h120c5.5,0,10,4.5,10,10v0c0,5.5-4.5,10-10,10h-120c-5.5,0-10-4.5-10-10v0
						C2329.7,742.5,2334.2,738,2339.7,738z"/>
					<path class="st6" d="M2279.8,738h19.9c5.5,0,10,4.5,10,10v0c0,5.5-4.5,10-10,10h-19.9c-5.5,0-10-4.5-10-10v0
						C2269.8,742.5,2274.3,738,2279.8,738z"/>
				</g>
				<g>
					<path class="st6" d="M2329.6,781h120c5.5,0,10,4.5,10,10v0c0,5.5-4.5,10-10,10h-120c-5.5,0-10-4.5-10-10v0
						C2319.6,785.5,2324.1,781,2329.6,781z"/>
					<path class="st6" d="M2269.6,781h19.9c5.5,0,10,4.5,10,10v0c0,5.5-4.5,10-10,10h-19.9c-5.5,0-10-4.5-10-10v0
						C2259.6,785.5,2264.1,781,2269.6,781z"/>
				</g>
			</g>
		</g>
		<g>
			<g>
				<path class="st4" d="M715.7,1241.9h440.9c9.5,0,15.5-7.8,13.3-17.3l-7.7-33.4c-2.2-9.5-11.8-17.3-21.3-17.3H700
					c-9.5,0-15.5,7.8-13.3,17.3l7.7,33.4C696.7,1234.1,706.3,1241.9,715.7,1241.9z"/>
				<path class="st4" d="M735.1,1354.2H1176c9.5,0,15.5-7.8,13.3-17.3l-7.7-33.4c-2.2-9.5-11.8-17.3-21.3-17.3H719.4
					c-9.5,0-15.5,7.8-13.3,17.3l7.7,33.4C716.1,1346.4,725.6,1354.2,735.1,1354.2z"/>
				<path class="st6" d="M735.1,1354.2H1176c9.5,0,15.5-7.8,13.3-17.3l-7.7-33.4c-2.2-9.5-11.8-17.3-21.3-17.3H719.4
					c-9.5,0-15.5,7.8-13.3,17.3l7.7,33.4C716.1,1346.4,725.6,1354.2,735.1,1354.2z"/>
				<path class="st6" d="M576.4,1241.9H641c9.5,0,15.5-7.8,13.3-17.3l-7.7-33.4c-2.2-9.5-11.8-17.3-21.3-17.3h-64.6
					c-9.5,0-15.5,7.8-13.3,17.3l7.7,33.4C557.3,1234.1,566.9,1241.9,576.4,1241.9z"/>
			</g>
			<g>
				<g>
					<path class="st4" d="M905.3,646.3H464.3c-9.5,0-15.5,7.8-13.3,17.3l7.7,33.4c2.2,9.5,11.8,17.3,21.3,17.3H921
						c9.5,0,15.5-7.8,13.3-17.3l-7.7-33.4C924.3,654.1,914.7,646.3,905.3,646.3z"/>
					<path class="st4" d="M885.9,534H445c-9.5,0-15.5,7.8-13.3,17.3l7.7,33.4c2.2,9.5,11.8,17.3,21.3,17.3h440.9
						c9.5,0,15.5-7.8,13.3-17.3l-7.7-33.4C904.9,541.8,895.4,534,885.9,534z"/>
					<path class="st6" d="M885.9,534H445c-9.5,0-15.5,7.8-13.3,17.3l7.7,33.4c2.2,9.5,11.8,17.3,21.3,17.3h440.9
						c9.5,0,15.5-7.8,13.3-17.3l-7.7-33.4C904.9,541.8,895.4,534,885.9,534z"/>
					<path class="st6" d="M1044.6,646.3H980c-9.5,0-15.5,7.8-13.3,17.3l7.7,33.4c2.2,9.5,11.8,17.3,21.3,17.3h64.6
						c9.5,0,15.5-7.8,13.3-17.3l-7.7-33.4C1063.7,654.1,1054.1,646.3,1044.6,646.3z"/>
				</g>
				<g>
					<path class="st6" d="M621.3,738h-120c-5.5,0-10,4.5-10,10v0c0,5.5,4.5,10,10,10h120c5.5,0,10-4.5,10-10v0
						C631.3,742.5,626.8,738,621.3,738z"/>
					<path class="st6" d="M681.2,738h-19.9c-5.5,0-10,4.5-10,10v0c0,5.5,4.5,10,10,10h19.9c5.5,0,10-4.5,10-10v0
						C691.2,742.5,686.7,738,681.2,738z"/>
				</g>
				<g>
					<path class="st6" d="M631.4,781h-120c-5.5,0-10,4.5-10,10v0c0,5.5,4.5,10,10,10h120c5.5,0,10-4.5,10-10v0
						C641.4,785.5,636.9,781,631.4,781z"/>
					<path class="st6" d="M691.4,781h-19.9c-5.5,0-10,4.5-10,10v0c0,5.5,4.5,10,10,10h19.9c5.5,0,10-4.5,10-10v0
						C701.4,785.5,696.9,781,691.4,781z"/>
				</g>
			</g>
		</g>
	</g>
	<g>
		<path class="st6" d="M1853.1,793.8h172c1,0,1.9,0.1,2.9,0.2c4.9,0.7,9.1,3,12,6.4c3,3.4,4.7,7.9,4.7,12.8c0,0.9-0.1,1.9-0.2,3
			l-41.1,296.4c-0.8,5.9-4,11.2-8.3,15.1c-4.4,3.9-10.1,6.3-16,6.3h-172c-1,0-1.9-0.1-2.9-0.2c-4.9-0.7-9.1-3-12-6.4
			c-3-3.4-4.7-7.9-4.7-12.8c0-0.9,0.1-1.9,0.2-3l41.1-296.4c0.8-5.9,4-11.2,8.3-15.1C1841.5,796.2,1847.2,793.8,1853.1,793.8
			L1853.1,793.8z M2025,802.2h-172c-3.9,0-7.6,1.6-10.5,4.2c-2.9,2.6-5,6.1-5.6,10l-41.1,296.4c-0.1,0.6-0.1,1.2-0.1,1.9
			c0,2.9,1,5.5,2.6,7.4c1.7,1.9,4,3.2,6.9,3.6c0.5,0.1,1.1,0.1,1.8,0.1h172c3.9,0,7.6-1.6,10.5-4.2c2.9-2.6,5-6.1,5.6-10l41.1-296.4
			c0.1-0.6,0.1-1.2,0.1-1.9c0-2.9-1-5.5-2.6-7.4c-1.7-1.9-4-3.2-6.9-3.6C2026.3,802.2,2025.7,802.2,2025,802.2z"/>
		<polygon class="st6" points="1862.8,977.8 1967,977.8 1964.7,994.3 1860.5,994.3 		"/>
		<path class="st4" d="M1867.2,867.1h101.3c7.6,0,13,6.2,11.9,13.8l-8.3,59.8c-1.1,7.6-8.1,13.8-15.7,13.8h-101.3
			c-7.6,0-13-6.2-11.9-13.8l8.3-59.8C1852.5,873.4,1859.6,867.1,1867.2,867.1z"/>
		<polygon class="st6" points="1858.9,1005.5 1963.2,1005.5 1960.9,1022 1856.6,1022 		"/>
		<polygon class="st6" points="1855.1,1033.1 1959.3,1033.1 1957,1049.6 1852.8,1049.6 		"/>
		<polygon class="st6" points="1851.3,1060.8 1955.5,1060.8 1953.2,1077.3 1849,1077.3 		"/>
		<path class="st6" d="M2005.6,815.5c6.1,0,10.4,5,9.5,11.1c-0.8,6.1-6.5,11.1-12.6,11.1c-6.1,0-10.4-5-9.5-11.1
			C1993.8,820.4,1999.5,815.5,2005.6,815.5z"/>
	</g>
	<g>
		<path class="st6" d="M851.3,758c20.7,0,40.7,16.7,44.7,37.4c4.1,20.7-9.4,37.4-30.1,37.4c-20.7,0-40.7-16.7-44.7-37.4
			C817.2,774.7,830.6,758,851.3,758z"/>
		<path class="st6" d="M869.6,851.5c20.7,0,40.7,16.7,44.7,37.4c4.1,20.7-9.4,37.4-30.1,37.4c-20.7,0-40.7-16.7-44.7-37.4
			C835.5,868.3,849,851.5,869.6,851.5z"/>
		<path class="st4" d="M888,945.1c20.7,0,40.7,16.7,44.7,37.4c4.1,20.7-9.4,37.4-30.1,37.4c-20.7,0-40.7-16.7-44.7-37.4
			C853.9,961.8,867.4,945.1,888,945.1z"/>
		<path class="st6" d="M906.4,1038.6c20.7,0,40.7,16.7,44.7,37.4c4.1,20.7-9.4,37.4-30.1,37.4c-20.7,0-40.7-16.7-44.7-37.4
			C872.3,1055.4,885.7,1038.6,906.4,1038.6z"/>
	</g>
	<path class="st6" d="M2081,1120c-0.5,2.8,1.3,4.4,3.6,4.4c2.3,0,4.3-1.6,4.8-4.4l4.2-24.5l16.4,26.6c1.5,1.7,2.5,2.2,4.8,2.2
		c1.7-0.5,3.6-1.6,4.1-4.4l6.2-35.7c0.4-2.1-1.5-4.4-3.7-4.4c-2.2,0-4.4,2.3-4.8,4.4l-4.3,24.6l-16.4-26.3c-1.4-1.6-1.8-2.2-4.1-2.2
		c-3.3,0-4.2,2.2-4.6,4.5L2081,1120L2081,1120z M2154.6,1124.4c6.2,0,7.2-8.3,1.4-8.3h-19.3l1.6-9.5h16c5.6,0,7.1-8.3,1.4-8.3h-16
		l1.6-9.5h18.3c5.7,0,7.3-8.2,1.4-8.2h-22.8c-2.2,0-4.2,1.6-4.6,3.9l-6.2,36c-0.4,2.2,1,3.9,3.3,3.9H2154.6L2154.6,1124.4z
		 M2206.1,1082.9c-1-3.9-5-3.7-7.2,0.2l-15.8,26.1l-4.9-26.1c-0.8-5-9.2-2.9-8.3,2.8l6.3,34.6c0.5,2.8,1.4,4.3,3.6,4.3
		c2.3,0,3.6-1.5,5.2-4.2l14.8-24.7l6.7,25.1c0.9,2.3,1.3,3.7,3.6,3.7c2.2,0,3.4-1.1,5.2-4.7l18.5-34.1c2.9-5.5-4.4-7.9-7.2-2.8
		l-14,26.1L2206.1,1082.9L2206.1,1082.9z M2292.3,1116.1l2.3-13.5c0.3-2-1.5-3.7-3.9-3.7h-12.7c-5.1,0-7,7.7-1.3,7.7h9.5l-1.4,7.8
		c-2.6,1.7-6.1,2.9-10,2.9c-8.3,0-13.5-5.7-11.9-15.1c1.5-8.9,10-15.1,17.7-15.1c3.3,0,6.3,1.7,8.3,4c3.2,3.4,9.8-2.3,6.6-6.1
		c-3.3-3.9-8.5-5.6-13.5-5.6c-13.4,0-25.1,10-27.3,22.8c-2.6,15.1,5.5,22.7,18.8,22.7c5.6,0,11.4-1.6,16.5-5.3
		C2291.4,1118.3,2292.1,1117.2,2292.3,1116.1L2292.3,1116.1z M2305.2,1122.3c-1.4,2.2-3.8,2.6-6,2.2c-1.8-1.1-2.7-3.4-1-6.1
		l24.4-35.6c2.3-3.4,6.9-3.5,7.9,0l11.7,35.6c1.7,4.9-6.6,8.9-8,3.9l-1.8-5.6h-23.4L2305.2,1122.3L2305.2,1122.3z M2314.3,1108.3h15
		l-4.5-15.7L2314.3,1108.3L2314.3,1108.3z M2367.3,1109.9c1.6,2.8,4.5,2.8,7.2,0l12.8-13.3l-4.1,23.5c-0.5,2.8,1,4.4,3.3,4.4
		c2,0,4.1-1.6,4.6-4.4l6.2-35.7c0.8-4.4-4.2-5.4-6.7-2.8l-17.8,19.5l-10.7-18.8c-0.9-1.2-1.8-2.3-3.6-2.3c-1,0-4,1.1-4.6,4.4
		l-6.2,35.7c-0.5,2.8,1,4.4,3,4.4c2.3,0,4.8-1.6,5.3-4.4l4.1-23.5L2367.3,1109.9L2367.3,1109.9z M2426.9,1124.4
		c6.2,0,7.2-8.3,1.4-8.3H2409l1.6-9.5h16c5.6,0,7.1-8.3,1.4-8.3h-16l1.6-9.5h18.3c5.7,0,7.3-8.2,1.4-8.2h-22.8
		c-2.2,0-4.2,1.6-4.6,3.9l-6.2,36c-0.4,2.2,1,3.9,3.3,3.9H2426.9z"/>
	<path class="st6" d="M585.8,894.3c-3.6-15-17.1-22.7-28.3-23.3c-11.7,0-22.1,7.7-18.3,23.3c3.8,15.5,17.8,23.3,29.4,22.8
		C579.7,917.1,589.4,909.3,585.8,894.3L585.8,894.3z M577.5,894.3c2.4,10-4.2,15-11.5,15c-7.1,0-16.1-5.1-18.5-15
		c-2.4-10,4.1-15,11.2-15C566,879.2,575,884.2,577.5,894.3L577.5,894.3z M597.9,912.1l-8.5-35.1c-0.6-2.3-0.6-4.5,2.7-4.5
		c2.3,0,2.9,0.6,5,2.2l27.4,26.3l-6-24.6c-0.5-2.1,0.8-4.4,2.9-4.4c2.3,0,5.1,2.3,5.6,4.4l8.7,35.7c0.7,2.8-0.8,3.9-2.3,4.4
		c-2.2,0-3.4-0.5-5.7-2.2l-27.4-26.6l5.9,24.5c0.7,2.8-0.7,4.4-2.9,4.4C601,916.5,598.6,914.9,597.9,912.1L597.9,912.1z
		 M644.6,912.6c0.6,2.3,2.7,3.9,4.9,3.9h21c6.3,0,4.2-8.3-2-8.3h-17.3l-7.7-31.8c-0.5-2.1-2.6-3.9-4.7-3.9c-2.2,0-3.6,1.8-3.1,3.9
		L644.6,912.6L644.6,912.6z M681.3,912.6l-8.8-36.2c-1.3-5.2,7.1-5.4,8.4,0l8.8,36.2C691,917.9,682.6,918,681.3,912.6L681.3,912.6z
		 M699,912.1c0.7,2.8,3.1,4.4,5.4,4.4c2.3,0,3.6-1.6,2.9-4.4l-5.9-24.5l27.4,26.6c2.3,1.7,3.5,2.2,5.7,2.2c1.5-0.5,3-1.6,2.3-4.4
		l-8.7-35.7c-0.5-2.1-3.3-4.4-5.6-4.4c-2.2,0-3.4,2.3-2.9,4.4l6,24.6l-27.4-26.3c-2.1-1.6-2.8-2.2-5-2.2c-3.3,0-3.3,2.2-2.7,4.5
		L699,912.1L699,912.1z M774.4,916.5h-23.8c-2.2,0-4.3-1.7-4.9-3.9l-8.7-36c-0.6-2.3,0.8-3.9,3-3.9h22.8c5.8,0,7.7,8.2,2,8.2h-18.3
		l2.3,9.5h16c5.6,0,7.7,8.3,2,8.3h-16l2.3,9.5h19.3C778.2,908.2,780.6,916.5,774.4,916.5z"/>
	<polygon class="st8" points="2121.6,1015.8 2141.8,995.6 2169.2,995.6 2149,1015.8 2169.2,1036.1 2141.8,1036.1 	"/>
	<polygon class="st4" points="2165.7,1015.8 2186,995.6 2213.4,995.6 2193.1,1015.8 2213.4,1036.1 2186,1036.1 	"/>
	<g>
		<circle class="st6" cx="2658" cy="328" r="50"/>
		<path class="st0" d="M2651.6,308.3l6.4,6.4l6.4-6.4c3.6-3.6,9.6-3.6,13.2,0l0,0c3.6,3.6,3.6,9.6,0,13.2l-6.4,6.4l6.4,6.4
			c3.6,3.6,3.6,9.6,0,13.2l0,0c-3.6,3.6-9.6,3.6-13.2,0l-6.4-6.4l-6.4,6.4c-3.6,3.6-9.6,3.6-13.2,0l0,0c-3.6-3.6-3.6-9.6,0-13.2
			l6.4-6.4l-6.4-6.4c-3.6-3.6-3.6-9.6,0-13.2l0,0C2642,304.7,2648,304.7,2651.6,308.3z"/>
	</g>
	<g>
		<circle class="st4" cx="2530.5" cy="328" r="50"/>
		<circle class="st0" cx="2530.5" cy="328" r="20.7"/>
	</g>
	<g>
		<path class="st6" d="M259.6,1581.8h182c3.7,0,6.7,3,6.7,6.7v29.2c0,3.7-3,6.7-6.7,6.7h-182c-3.7,0-6.7-3-6.7-6.7v-29.2
			C253,1584.8,256,1581.8,259.6,1581.8z"/>
		<path class="st6" d="M259.6,1518H336c3.7,0,6.7,3,6.7,6.7v29.2c0,3.7-3,6.7-6.7,6.7h-76.3c-3.7,0-6.7-3-6.7-6.7v-29.2
			C253,1521,256,1518,259.6,1518z"/>
	</g>
	<path class="st4" d="M299.7,1341.8h24.5c3.6,0,6.6,3,6.6,6.6v6.9l4.9-4.9c2.6-2.6,6.8-2.6,9.3,0l17.3,17.3c2.6,2.6,2.6,6.8,0,9.3
		l-4.9,4.9h6.9c3.6,0,6.6,3,6.6,6.6v24.5c0,3.6-3,6.6-6.6,6.6h-6.9l4.9,4.9c2.6,2.6,2.6,6.8,0,9.3l-17.3,17.3
		c-2.6,2.6-6.8,2.6-9.3,0l-4.9-4.9v6.9c0,3.6-3,6.6-6.6,6.6h-24.5c-3.6,0-6.6-3-6.6-6.6v-6.9l-4.9,4.9c-2.6,2.6-6.8,2.6-9.3,0
		l-17.3-17.3c-2.6-2.6-2.6-6.8,0-9.3l4.9-4.9h-6.9c-3.6,0-6.6-3-6.6-6.6v-24.5c0-3.6,3-6.6,6.6-6.6h6.9l-4.9-4.9
		c-2.6-2.6-2.6-6.8,0-9.3l17.3-17.3c2.6-2.6,6.8-2.6,9.3,0l4.9,4.9v-6.9C293.1,1344.8,296.1,1341.8,299.7,1341.8L299.7,1341.8z
		 M311.9,1376.6c-13.4,0-24.2,10.8-24.2,24.2c0,13.4,10.8,24.2,24.2,24.2s24.2-10.8,24.2-24.2
		C336.1,1387.4,325.3,1376.6,311.9,1376.6z"/>
	<g>
		<path class="st4" d="M1230.5,358L1230.5,358c5.5,0,10,4.5,10,10v180c0,5.5-4.5,10-10,10h0c-5.5,0-10-4.5-10-10V368
			C1220.5,362.5,1225,358,1230.5,358z"/>
		<path class="st4" d="M1230.5,567.1L1230.5,567.1c5.5,0,10,4.5,10,10v13.5c0,5.5-4.5,10-10,10h0c-5.5,0-10-4.5-10-10v-13.5
			C1220.5,571.6,1225,567.1,1230.5,567.1z"/>
		<path class="st6" d="M1230.5,613.6L1230.5,613.6c5.5,0,10,4.5,10,10v3.4c0,5.5-4.5,10-10,10h0c-5.5,0-10-4.5-10-10v-3.4
			C1220.5,618.1,1225,613.6,1230.5,613.6z"/>
	</g>
	<g>
		<path class="st4" d="M1010.5,351.3L1010.5,351.3c5.5,0,10,4.5,10,10v132.6c0,5.5-4.5,10-10,10h0c-5.5,0-10-4.5-10-10V361.3
			C1000.5,355.8,1005,351.3,1010.5,351.3z"/>
		<path class="st6" d="M1010.5,510.9L1010.5,510.9c5.5,0,10,4.5,10,10v5.6c0,5.5-4.5,10-10,10h0c-5.5,0-10-4.5-10-10v-5.6
			C1000.5,515.4,1005,510.9,1010.5,510.9z"/>
		<path class="st4" d="M1009.4,546.3h2.1c4.9,0,8.9,4,8.9,8.9v0c0,4.9-4,8.9-8.9,8.9h-2.1c-4.9,0-8.9-4-8.9-8.9v0
			C1000.5,550.3,1004.5,546.3,1009.4,546.3z"/>
	</g>
	<g>
		<path class="st4" d="M1970.5,358L1970.5,358c5.5,0,10,4.5,10,10v129.9c0,5.5-4.5,10-10,10h0c-5.5,0-10-4.5-10-10V368
			C1960.5,362.5,1965,358,1970.5,358z"/>
		<path class="st6" d="M1970.5,514.7L1970.5,514.7c5.5,0,10,4.5,10,10v5.1c0,5.5-4.5,10-10,10h0c-5.5,0-10-4.5-10-10v-5.1
			C1960.5,519.2,1965,514.7,1970.5,514.7z"/>
		<path class="st6" d="M1969.3,549.6h2.4c4.8,0,8.8,3.9,8.8,8.8l0,0c0,4.8-3.9,8.8-8.8,8.8h-2.4c-4.8,0-8.8-3.9-8.8-8.8l0,0
			C1960.5,553.5,1964.4,549.6,1969.3,549.6z"/>
	</g>
	<g>
		<path class="st4" d="M1870.5,347.8L1870.5,347.8c5.5,0,10,4.5,10,10v40.4c0,5.5-4.5,10-10,10h0c-5.5,0-10-4.5-10-10v-40.4
			C1860.5,352.3,1865,347.8,1870.5,347.8z"/>
		<path class="st6" d="M1870.5,415L1870.5,415c5.5,0,10,4.5,10,10v5.1c0,5.5-4.5,10-10,10h0c-5.5,0-10-4.5-10-10V425
			C1860.5,419.5,1865,415,1870.5,415z"/>
		<path class="st4" d="M1869.3,449.9h2.4c4.8,0,8.8,3.9,8.8,8.8l0,0c0,4.8-3.9,8.8-8.8,8.8h-2.4c-4.8,0-8.8-3.9-8.8-8.8l0,0
			C1860.5,453.8,1864.4,449.9,1869.3,449.9z"/>
	</g>
	<g>
		<path class="st6" d="M2560,1283.5l53.8,33.5l-8.7,69l-63.6,34.2l-55.8-34.8l8.7-69l63.6-34.2L2560,1283.5L2560,1283.5z
			 M2581.4,1306.6l-23.7-14.8l-55.6,29.9l-7.5,59.4l47.2,29.4l55.6-29.9l7.5-59.4L2581.4,1306.6z"/>
		<path class="st4" d="M2492.3,1379.8l53.8,33.5c-2.9,23-5.8,46-8.7,69c-21.2,11.4-42.4,22.8-63.6,34.2l-55.8-34.8l8.7-69l63.6-34.2
			L2492.3,1379.8L2492.3,1379.8z M2513.6,1402.9l-23.7-14.8l-55.6,29.9l-7.5,59.4l47.2,29.4l55.6-29.9l7.5-59.4L2513.6,1402.9z"/>
		<path class="st6" d="M2603.4,1379.8l53.8,33.5c-2.9,23-5.8,46-8.7,69c-21.2,11.4-42.4,22.8-63.6,34.2l-55.8-34.8l8.7-69l63.6-34.2
			L2603.4,1379.8L2603.4,1379.8z M2624.8,1402.9l-23.7-14.8l-55.6,29.9l-7.5,59.4l47.2,29.4l55.6-29.9l7.5-59.4L2624.8,1402.9z"/>
		<path class="st4" d="M2671.2,1283.5l53.8,33.5l-8.7,69l-63.6,34.2l-55.8-34.8l8.7-69l63.6-34.2L2671.2,1283.5L2671.2,1283.5z
			 M2692.5,1306.6l-23.7-14.8l-55.6,29.9l-7.5,59.4l47.2,29.4l55.6-29.9l7.5-59.4L2692.5,1306.6z"/>
		<path class="st6" d="M2448.9,1283.5l53.8,33.5l-8.7,69l-63.6,34.2l-55.8-34.8l8.7-69l63.6-34.2L2448.9,1283.5L2448.9,1283.5z
			 M2470.2,1306.6l-23.7-14.8l-55.6,29.9l-7.5,59.4l47.2,29.4l55.6-29.9l7.5-59.4L2470.2,1306.6z"/>
		<path class="st6" d="M2627.8,1187.2l53.8,33.5c-2.9,23-5.8,46-8.7,69c-21.2,11.4-42.4,22.8-63.6,34.2l-55.8-34.8l8.7-69l63.6-34.2
			L2627.8,1187.2L2627.8,1187.2z M2649.1,1210.4l-23.7-14.8l-55.6,29.9l-7.5,59.4l47.2,29.4l55.6-29.9l7.5-59.4L2649.1,1210.4z"/>
		<path class="st4" d="M2516.6,1187.2l53.8,33.5c-2.9,23-5.8,46-8.7,69c-21.2,11.4-42.4,22.8-63.6,34.2l-55.8-34.8l8.7-69l63.6-34.2
			L2516.6,1187.2L2516.6,1187.2z M2538,1210.4l-23.7-14.8l-55.6,29.9l-7.5,59.4l47.2,29.4l55.6-29.9l7.5-59.4L2538,1210.4z"/>
	</g>
	<g>
		<path class="st6" d="M345.1,1025.4l-27.9,17.4l4.5,35.3l33.3,17.9l27.9-17.4l-4.5-35.3L345.1,1025.4L345.1,1025.4z M326.6,1027
			l18.1-11.3L386,1038l5.7,44.9l-36.5,22.7l-41.3-22.2l-5.7-44.9L326.6,1027z"/>
		<path class="st4" d="M387.4,1085.5l-27.9,17.4l4.5,35.3l33.3,17.9l27.9-17.4l-4.5-35.3L387.4,1085.5L387.4,1085.5z M369,1087.2
			l18.1-11.3l41.3,22.2l5.7,44.9l-36.5,22.7l-41.3-22.2l-5.7-44.9L369,1087.2z"/>
		<path class="st6" d="M317.9,1085.5l-27.9,17.4l4.5,35.3l33.3,17.9l27.9-17.4l-4.5-35.3L317.9,1085.5L317.9,1085.5z M299.5,1087.2
			l18.1-11.3l41.3,22.2l5.7,44.9l-36.5,22.7l-41.3-22.2l-5.7-44.9L299.5,1087.2z"/>
		<path class="st4" d="M275.6,1025.4l-27.9,17.4l4.5,35.3l33.3,17.9l27.9-17.4l-4.5-35.3L275.6,1025.4L275.6,1025.4z M257.1,1027
			l18.1-11.3l41.3,22.2l5.7,44.9l-36.5,22.7l-41.3-22.2l-5.7-44.9L257.1,1027z"/>
		<path class="st6" d="M414.5,1025.4l-27.9,17.4l4.5,35.3l33.3,17.9l27.9-17.4l-4.5-35.3L414.5,1025.4L414.5,1025.4z M396.1,1027
			l18.1-11.3l41.3,22.2l5.7,44.9l-36.5,22.7l-41.3-22.2l-5.7-44.9L396.1,1027z"/>
		<path class="st6" d="M302.7,965.2l-27.9,17.4l4.5,35.3l33.3,17.9l27.9-17.4l-4.5-35.3L302.7,965.2L302.7,965.2z M284.3,966.9
			l18.1-11.3l41.3,22.2l5.7,44.9l-36.5,22.7l-41.3-22.2l-5.7-44.9L284.3,966.9z"/>
		<path class="st4" d="M372.2,965.2l-27.9,17.4l4.5,35.3l33.3,17.9l27.9-17.4l-4.5-35.3L372.2,965.2L372.2,965.2z M353.7,966.9
			l18.1-11.3l41.3,22.2l5.7,44.9l-36.5,22.7l-41.3-22.2l-5.7-44.9L353.7,966.9z"/>
	</g>
</g>
</svg>
