<?xml version="1.0" encoding="utf-8"?>
<!-- Generator: Adobe Illustrator 16.0.0, SVG Export Plug-In . SVG Version: 6.00 Build 0)  -->
<!DOCTYPE svg PUBLIC "-//W3C//DTD SVG 1.1//EN" "http://www.w3.org/Graphics/SVG/1.1/DTD/svg11.dtd">
<svg version="1.1" id="Layer_2" xmlns="http://www.w3.org/2000/svg" xmlns:xlink="http://www.w3.org/1999/xlink" x="0px" y="0px"
	 width="1400px" height="980px" viewBox="0 0 1400 980" enable-background="new 0 0 1400 980" xml:space="preserve">
<rect fill="#023030" width="1400" height="980"/>
<g>
</g>
<g>
</g>
<g id="Airport">
</g>
<g>
	<g>
		<g>
			<path fill-rule="evenodd" clip-rule="evenodd" fill="#FFFFFF" d="M582.1,44.2v413.2h313V44.2H582.1z M603.7,384.7
				c-8.1,0-8.1-12.5,0-12.5C611.8,372.2,611.8,384.7,603.7,384.7z M603.7,301.5c-8.1,0-8.1-12.5,0-12.5
				C611.8,289,611.8,301.5,603.7,301.5z M603.7,211.3c-8.1,0-8.1-12.5,0-12.5C611.8,198.8,611.8,211.3,603.7,211.3z M603.7,128.7
				c-8.1,0-8.1-12.5,0-12.5C611.8,116.2,611.8,128.7,603.7,128.7z"/>
			<g>
				<g>
					<rect x="582.1" y="99.2" fill-rule="evenodd" clip-rule="evenodd" fill="#36A9E1" width="313" height="1.3"/>
					<rect x="582.1" y="114.2" fill-rule="evenodd" clip-rule="evenodd" fill="#36A9E1" width="313" height="1.3"/>
					<rect x="582.1" y="129.3" fill-rule="evenodd" clip-rule="evenodd" fill="#36A9E1" width="313" height="1.3"/>
					<rect x="582.1" y="144.4" fill-rule="evenodd" clip-rule="evenodd" fill="#36A9E1" width="313" height="1.3"/>
					<rect x="582.1" y="159.5" fill-rule="evenodd" clip-rule="evenodd" fill="#36A9E1" width="313" height="1.3"/>
					<rect x="582.1" y="174.5" fill-rule="evenodd" clip-rule="evenodd" fill="#36A9E1" width="313" height="1.3"/>
					<rect x="582.1" y="189.6" fill-rule="evenodd" clip-rule="evenodd" fill="#36A9E1" width="313" height="1.3"/>
					<path fill-rule="evenodd" clip-rule="evenodd" fill="#36A9E1" d="M597.7,204.7h-15.6v1.3h15.7
						C597.7,205.5,597.7,205.1,597.7,204.7z"/>
					<path fill-rule="evenodd" clip-rule="evenodd" fill="#36A9E1" d="M609.8,204.7c0,0.4,0,0.8,0,1.3h285.4v-1.3H609.8z"/>
					<rect x="582.1" y="219.7" fill-rule="evenodd" clip-rule="evenodd" fill="#36A9E1" width="313" height="1.3"/>
					<rect x="582.1" y="234.8" fill-rule="evenodd" clip-rule="evenodd" fill="#36A9E1" width="313" height="1.3"/>
					<rect x="582.1" y="249.9" fill-rule="evenodd" clip-rule="evenodd" fill="#36A9E1" width="313" height="1.3"/>
					<rect x="582.1" y="265" fill-rule="evenodd" clip-rule="evenodd" fill="#36A9E1" width="313" height="1.3"/>
					<rect x="582.1" y="280" fill-rule="evenodd" clip-rule="evenodd" fill="#36A9E1" width="313" height="1.3"/>
					<path fill-rule="evenodd" clip-rule="evenodd" fill="#36A9E1" d="M609.8,295.1c0,0.4,0,0.8-0.1,1.3h285.4v-1.3H609.8z"/>
					<path fill-rule="evenodd" clip-rule="evenodd" fill="#36A9E1" d="M597.7,295.1h-15.6v1.3h15.7
						C597.7,295.9,597.7,295.5,597.7,295.1z"/>
					<rect x="582.1" y="310.2" fill-rule="evenodd" clip-rule="evenodd" fill="#36A9E1" width="313" height="1.3"/>
					<rect x="582.1" y="325.2" fill-rule="evenodd" clip-rule="evenodd" fill="#36A9E1" width="313" height="1.3"/>
					<rect x="582.1" y="340.3" fill-rule="evenodd" clip-rule="evenodd" fill="#36A9E1" width="313" height="1.3"/>
					<rect x="582.1" y="355.4" fill-rule="evenodd" clip-rule="evenodd" fill="#36A9E1" width="313" height="1.3"/>
					<rect x="582.1" y="370.5" fill-rule="evenodd" clip-rule="evenodd" fill="#36A9E1" width="313" height="1.3"/>
					<rect x="582.1" y="385.5" fill-rule="evenodd" clip-rule="evenodd" fill="#36A9E1" width="313" height="1.3"/>
					<rect x="582.1" y="400.6" fill-rule="evenodd" clip-rule="evenodd" fill="#36A9E1" width="313" height="1.3"/>
					<rect x="582.1" y="415.7" fill-rule="evenodd" clip-rule="evenodd" fill="#36A9E1" width="313" height="1.3"/>
					<rect x="582.1" y="430.7" fill-rule="evenodd" clip-rule="evenodd" fill="#36A9E1" width="313" height="1.3"/>
				</g>
				<rect x="626.9" y="44.2" fill-rule="evenodd" clip-rule="evenodd" fill="#E6332A" width="2.5" height="413.2"/>
			</g>
		</g>
	</g>
	<g>
		<g>
			<path fill-rule="evenodd" clip-rule="evenodd" fill="#FFFFEF" d="M547.3,476.7v459.1h347.8V476.7H547.3z M568.6,731.4
				c-8.1,0-8.1-12.5,0-12.5C576.7,718.9,576.7,731.4,568.6,731.4z M568.5,764.9c-8.1,0-8.1-12.5,0-12.5
				C576.5,752.4,576.5,764.9,568.5,764.9z M568.6,698.1c-8.1,0-8.1-12.5,0-12.5C576.7,685.6,576.7,698.1,568.6,698.1z M568.6,597.8
				c-8.1,0-8.1-12.5,0-12.5C576.7,585.3,576.7,597.8,568.6,597.8z M568.6,631.3c-8.1,0-8.1-12.5,0-12.5
				C576.7,618.8,576.7,631.3,568.6,631.3z M568.6,564.7c-8.1,0-8.1-12.5,0-12.5C576.7,552.1,576.7,564.7,568.6,564.7z M568.5,518.6
				c8.1,0,8.1,12.5,0,12.5C560.4,531.1,560.4,518.6,568.5,518.6z M568.5,652.1c8.1,0,8.1,12.5,0,12.5
				C560.4,664.6,560.4,652.1,568.5,652.1z M568.5,785.8c8.1,0,8.1,12.5,0,12.5C560.4,798.3,560.4,785.8,568.5,785.8z M568.6,898.4
				c-8.1,0-8.1-12.5,0-12.5C576.7,885.9,576.7,898.4,568.6,898.4z M568.6,865.1c-8.1,0-8.1-12.5,0-12.5
				C576.7,852.5,576.7,865.1,568.6,865.1z M568.6,831.7c-8.1,0-8.1-12.5,0-12.5C576.7,819.1,576.7,831.7,568.6,831.7z"/>
			<g>
				<g>
					<rect x="547.3" y="536.3" fill-rule="evenodd" clip-rule="evenodd" fill="#EBAF84" width="347.8" height="1.4"/>
					<rect x="547.3" y="544.7" fill-rule="evenodd" clip-rule="evenodd" fill="#EBAF84" width="347.8" height="1.4"/>
					<rect x="547.3" y="569.8" fill-rule="evenodd" clip-rule="evenodd" fill="#EBAF84" width="347.8" height="1.4"/>
					<rect x="547.3" y="578.2" fill-rule="evenodd" clip-rule="evenodd" fill="#EBAF84" width="347.8" height="1.4"/>
					<rect x="547.3" y="603.3" fill-rule="evenodd" clip-rule="evenodd" fill="#EBAF84" width="347.8" height="1.4"/>
					<rect x="547.3" y="611.7" fill-rule="evenodd" clip-rule="evenodd" fill="#EBAF84" width="347.8" height="1.4"/>
					<rect x="547.3" y="636.8" fill-rule="evenodd" clip-rule="evenodd" fill="#EBAF84" width="347.8" height="1.4"/>
					<rect x="547.3" y="645.2" fill-rule="evenodd" clip-rule="evenodd" fill="#EBAF84" width="347.8" height="1.4"/>
					<rect x="547.3" y="670.3" fill-rule="evenodd" clip-rule="evenodd" fill="#EBAF84" width="347.8" height="1.4"/>
					<rect x="547.3" y="678.7" fill-rule="evenodd" clip-rule="evenodd" fill="#EBAF84" width="347.8" height="1.4"/>
					<rect x="547.3" y="703.8" fill-rule="evenodd" clip-rule="evenodd" fill="#EBAF84" width="347.8" height="1.4"/>
					<rect x="547.3" y="712.1" fill-rule="evenodd" clip-rule="evenodd" fill="#EBAF84" width="347.8" height="1.4"/>
					<rect x="547.3" y="737.3" fill-rule="evenodd" clip-rule="evenodd" fill="#EBAF84" width="347.8" height="1.4"/>
					<rect x="547.3" y="745.6" fill-rule="evenodd" clip-rule="evenodd" fill="#EBAF84" width="347.8" height="1.4"/>
					<rect x="547.3" y="770.8" fill-rule="evenodd" clip-rule="evenodd" fill="#EBAF84" width="347.8" height="1.4"/>
					<rect x="547.3" y="779.1" fill-rule="evenodd" clip-rule="evenodd" fill="#EBAF84" width="347.8" height="1.4"/>
					<rect x="547.3" y="804.2" fill-rule="evenodd" clip-rule="evenodd" fill="#EBAF84" width="347.8" height="1.4"/>
					<rect x="547.3" y="812.6" fill-rule="evenodd" clip-rule="evenodd" fill="#EBAF84" width="347.8" height="1.4"/>
					<rect x="547.3" y="837.7" fill-rule="evenodd" clip-rule="evenodd" fill="#EBAF84" width="347.8" height="1.4"/>
					<rect x="547.3" y="846.1" fill-rule="evenodd" clip-rule="evenodd" fill="#EBAF84" width="347.8" height="1.4"/>
					<rect x="547.3" y="871.2" fill-rule="evenodd" clip-rule="evenodd" fill="#EBAF84" width="347.8" height="1.4"/>
					<rect x="547.3" y="879.6" fill-rule="evenodd" clip-rule="evenodd" fill="#EBAF84" width="347.8" height="1.4"/>
					<rect x="547.3" y="904.7" fill-rule="evenodd" clip-rule="evenodd" fill="#EBAF84" width="347.8" height="1.4"/>
					<rect x="547.3" y="913.1" fill-rule="evenodd" clip-rule="evenodd" fill="#EBAF84" width="347.8" height="1.4"/>
				</g>
				<rect x="590.2" y="476.7" fill-rule="evenodd" clip-rule="evenodd" fill="#E6332A" width="2.8" height="459.1"/>
			</g>
		</g>
	</g>
	<g>
		<g>
			<path fill-rule="evenodd" clip-rule="evenodd" fill="#FFE8E3" d="M946,44.2V377h268.8V44.2H946z M965.4,67.5
				c-8.2,0-8.2-12.7,0-12.7C973.6,54.7,973.6,67.5,965.4,67.5z M990.9,67.5c-8.2,0-8.2-12.7,0-12.7S999.2,67.5,990.9,67.5z
				 M1016.6,67.5c-8.2,0-8.2-12.7,0-12.7C1024.8,54.7,1024.8,67.5,1016.6,67.5z M1042.1,67.4c-8.2,0-8.2-12.7,0-12.7
				C1050.3,54.6,1050.3,67.4,1042.1,67.4z M1067.6,67.5c-8.2,0-8.2-12.7,0-12.7C1075.8,54.7,1075.8,67.5,1067.6,67.5z M1093.1,67.5
				c-8.2,0-8.2-12.7,0-12.7C1101.3,54.7,1101.3,67.5,1093.1,67.5z M1118.6,67.5c-8.2,0-8.2-12.7,0-12.7
				C1126.8,54.7,1126.8,67.5,1118.6,67.5z M1144.2,67.4c-8.2,0-8.2-12.7,0-12.7C1152.4,54.6,1152.4,67.4,1144.2,67.4z M1169.6,67.5
				c-8.2,0-8.2-12.7,0-12.7C1177.8,54.7,1177.8,67.5,1169.6,67.5z M1195.2,67.6c-8.2,0-8.2-12.7,0-12.7S1203.4,67.6,1195.2,67.6z"/>
			<g>
				<rect x="946" y="105" fill-rule="evenodd" clip-rule="evenodd" fill="#BFADBF" width="268.8" height="1.6"/>
				<rect x="946" y="123.8" fill-rule="evenodd" clip-rule="evenodd" fill="#BFADBF" width="268.8" height="1.6"/>
				<rect x="946" y="142.6" fill-rule="evenodd" clip-rule="evenodd" fill="#BFADBF" width="268.8" height="1.6"/>
				<rect x="946" y="161.5" fill-rule="evenodd" clip-rule="evenodd" fill="#BFADBF" width="268.8" height="1.6"/>
				<rect x="946" y="180.2" fill-rule="evenodd" clip-rule="evenodd" fill="#BFADBF" width="268.8" height="1.6"/>
				<rect x="946" y="199.1" fill-rule="evenodd" clip-rule="evenodd" fill="#BFADBF" width="268.8" height="1.6"/>
				<rect x="946" y="217.8" fill-rule="evenodd" clip-rule="evenodd" fill="#BFADBF" width="268.8" height="1.6"/>
				<rect x="946" y="236.7" fill-rule="evenodd" clip-rule="evenodd" fill="#BFADBF" width="268.8" height="1.6"/>
				<rect x="946" y="255.4" fill-rule="evenodd" clip-rule="evenodd" fill="#BFADBF" width="268.8" height="1.6"/>
				<rect x="946" y="274.3" fill-rule="evenodd" clip-rule="evenodd" fill="#BFADBF" width="268.8" height="1.6"/>
				<rect x="946" y="293" fill-rule="evenodd" clip-rule="evenodd" fill="#BFADBF" width="268.8" height="1.6"/>
				<rect x="946" y="311.9" fill-rule="evenodd" clip-rule="evenodd" fill="#BFADBF" width="268.8" height="1.6"/>
				<rect x="946" y="330.6" fill-rule="evenodd" clip-rule="evenodd" fill="#BFADBF" width="268.8" height="1.6"/>
				<rect x="946" y="349.5" fill-rule="evenodd" clip-rule="evenodd" fill="#BFADBF" width="268.8" height="1.6"/>
			</g>
		</g>
	</g>
	<g>
		<g>
			<path fill-rule="evenodd" clip-rule="evenodd" fill="#FFFFFF" d="M249.4,552.6v363.2c0,11,9,20,20,20h207.8c11.1,0,20-8.9,20-20
				V552.6H249.4z M271.9,575.2c-8.1,0-8.1-12.5,0-12.5C280,562.6,280,575.2,271.9,575.2z M294.5,575.2c-8.1,0-8.1-12.5,0-12.5
				C302.6,562.6,302.6,575.2,294.5,575.2z M317,575.2c-8.1,0-8.1-12.5,0-12.5C325,562.6,325,575.2,317,575.2z M339.7,575.2
				c-8.1,0-8.1-12.5,0-12.5C347.7,562.7,347.7,575.2,339.7,575.2z M362.2,575.2c-8.1,0-8.1-12.5,0-12.5
				C370.3,562.6,370.3,575.2,362.2,575.2z M384.7,575.2c-8.1,0-8.1-12.5,0-12.5C392.8,562.7,392.8,575.2,384.7,575.2z M407.2,575.2
				c-8.1,0-8.1-12.5,0-12.5C415.3,562.6,415.3,575.2,407.2,575.2z M429.8,575.2c-8.1,0-8.1-12.5,0-12.5
				C437.9,562.6,437.9,575.2,429.8,575.2z M452.3,575.2c-8.1,0-8.1-12.5,0-12.5C460.4,562.6,460.4,575.2,452.3,575.2z M474.8,575.2
				c-8.1,0-8.1-12.5,0-12.5C482.9,562.6,482.9,575.2,474.8,575.2z"/>
			<g>
				<rect x="276.4" y="616.5" fill-rule="evenodd" clip-rule="evenodd" fill="#C6C6C6" width="194.1" height="2.1"/>
				<rect x="276.4" y="641.4" fill-rule="evenodd" clip-rule="evenodd" fill="#C6C6C6" width="194.1" height="2.1"/>
				<rect x="276.4" y="666.2" fill-rule="evenodd" clip-rule="evenodd" fill="#C6C6C6" width="194.1" height="2.1"/>
				<rect x="276.4" y="691.1" fill-rule="evenodd" clip-rule="evenodd" fill="#C6C6C6" width="194.1" height="2.1"/>
				<rect x="276.4" y="716" fill-rule="evenodd" clip-rule="evenodd" fill="#C6C6C6" width="194.1" height="2.1"/>
				<rect x="276.4" y="740.8" fill-rule="evenodd" clip-rule="evenodd" fill="#C6C6C6" width="194.1" height="2.1"/>
				<rect x="276.4" y="765.7" fill-rule="evenodd" clip-rule="evenodd" fill="#C6C6C6" width="194.1" height="2.1"/>
				<rect x="276.4" y="790.5" fill-rule="evenodd" clip-rule="evenodd" fill="#C6C6C6" width="194.1" height="2.1"/>
				<rect x="276.4" y="815.4" fill-rule="evenodd" clip-rule="evenodd" fill="#C6C6C6" width="194.1" height="2.1"/>
				<rect x="276.4" y="840.3" fill-rule="evenodd" clip-rule="evenodd" fill="#C6C6C6" width="194.1" height="2.1"/>
				<rect x="276.4" y="865.2" fill-rule="evenodd" clip-rule="evenodd" fill="#C6C6C6" width="194.1" height="2.1"/>
				<rect x="276.4" y="890" fill-rule="evenodd" clip-rule="evenodd" fill="#C6C6C6" width="194.1" height="2.1"/>
			</g>
		</g>
	</g>
	<g>
		<path fill="#FFFFFF" d="M972,924.5h216.9V690.1H972V924.5z M987.1,913.9c0,2.6-2.1,4.7-4.6,4.7c-2.6,0-4.7-2.1-4.7-4.7
			c0-2.6,2.1-4.6,4.7-4.6C985,909.2,987.1,911.3,987.1,913.9z M987.1,897.4c0,2.6-2.1,4.6-4.6,4.6c-2.6,0-4.7-2.1-4.7-4.6
			c0-2.6,2.1-4.7,4.7-4.7C985,892.7,987.1,894.8,987.1,897.4z M987.1,880.9c0,2.6-2.1,4.6-4.6,4.6c-2.6,0-4.7-2.1-4.7-4.6
			c0-2.6,2.1-4.6,4.7-4.6C985,876.2,987.1,878.3,987.1,880.9z M987.1,864.4c0,2.6-2.1,4.7-4.6,4.7c-2.6,0-4.7-2.1-4.7-4.7
			c0-2.6,2.1-4.6,4.7-4.6C985,859.7,987.1,861.8,987.1,864.4z M987.1,847.9c0,2.6-2.1,4.6-4.6,4.6c-2.6,0-4.7-2.1-4.7-4.6
			c0-2.6,2.1-4.6,4.7-4.6C985,843.2,987.1,845.3,987.1,847.9z M987.1,831.4c0,2.6-2.1,4.6-4.6,4.6c-2.6,0-4.7-2.1-4.7-4.6
			s2.1-4.7,4.7-4.7C985,826.7,987.1,828.8,987.1,831.4z M987.1,814.9c0,2.6-2.1,4.6-4.6,4.6c-2.6,0-4.7-2.1-4.7-4.6s2.1-4.6,4.7-4.6
			C985,810.2,987.1,812.3,987.1,814.9z M987.1,798.4c0,2.6-2.1,4.6-4.6,4.6c-2.6,0-4.7-2.1-4.7-4.6c0-2.6,2.1-4.7,4.7-4.7
			C985,793.7,987.1,795.8,987.1,798.4z M987.1,781.9c0,2.6-2.1,4.6-4.6,4.6c-2.6,0-4.7-2.1-4.7-4.6c0-2.6,2.1-4.6,4.7-4.6
			C985,777.2,987.1,779.3,987.1,781.9z M987.1,765.4c0,2.6-2.1,4.6-4.6,4.6c-2.6,0-4.7-2.1-4.7-4.6c0-2.6,2.1-4.6,4.7-4.6
			C985,760.7,987.1,762.8,987.1,765.4z M987.1,748.9c0,2.6-2.1,4.7-4.6,4.7c-2.6,0-4.7-2.1-4.7-4.7s2.1-4.6,4.7-4.6
			C985,744.2,987.1,746.3,987.1,748.9z M987.1,732.4c0,2.6-2.1,4.6-4.6,4.6c-2.6,0-4.7-2.1-4.7-4.6s2.1-4.7,4.7-4.7
			C985,727.7,987.1,729.8,987.1,732.4z M987.1,715.9c0,2.6-2.1,4.6-4.6,4.6c-2.6,0-4.7-2.1-4.7-4.6c0-2.6,2.1-4.6,4.7-4.6
			C985,711.2,987.1,713.3,987.1,715.9z M987.1,699.4c0,2.6-2.1,4.6-4.6,4.6c-2.6,0-4.7-2.1-4.7-4.6c0-2.6,2.1-4.6,4.7-4.6
			C985,694.7,987.1,696.8,987.1,699.4z"/>
		<g>
			
				<line fill="none" stroke="#E1DAFA" stroke-width="1.4768" stroke-miterlimit="10" x1="1019.8" y1="924.3" x2="1019.8" y2="690.5"/>
			
				<line fill="none" stroke="#E1DAFA" stroke-width="1.4768" stroke-miterlimit="10" x1="1032.6" y1="924.3" x2="1032.6" y2="690.5"/>
			
				<line fill="none" stroke="#E1DAFA" stroke-width="1.4768" stroke-miterlimit="10" x1="1045.4" y1="924.3" x2="1045.4" y2="690.5"/>
			
				<line fill="none" stroke="#E1DAFA" stroke-width="1.4768" stroke-miterlimit="10" x1="1058.2" y1="924.3" x2="1058.2" y2="690.5"/>
			<line fill="none" stroke="#E1DAFA" stroke-width="1.4768" stroke-miterlimit="10" x1="1071" y1="924.3" x2="1071" y2="690.5"/>
			
				<line fill="none" stroke="#E1DAFA" stroke-width="1.4768" stroke-miterlimit="10" x1="1083.7" y1="924.3" x2="1083.7" y2="690.5"/>
			
				<line fill="none" stroke="#E1DAFA" stroke-width="1.4768" stroke-miterlimit="10" x1="1096.5" y1="924.3" x2="1096.5" y2="690.5"/>
			
				<line fill="none" stroke="#E1DAFA" stroke-width="1.4768" stroke-miterlimit="10" x1="1109.3" y1="924.3" x2="1109.3" y2="690.5"/>
			
				<line fill="none" stroke="#E1DAFA" stroke-width="1.4768" stroke-miterlimit="10" x1="1122.1" y1="924.3" x2="1122.1" y2="690.5"/>
			
				<line fill="none" stroke="#E1DAFA" stroke-width="1.4768" stroke-miterlimit="10" x1="1134.9" y1="924.3" x2="1134.9" y2="690.5"/>
			
				<line fill="none" stroke="#E1DAFA" stroke-width="1.4768" stroke-miterlimit="10" x1="1147.7" y1="924.3" x2="1147.7" y2="690.5"/>
			
				<line fill="none" stroke="#E1DAFA" stroke-width="1.4768" stroke-miterlimit="10" x1="1160.5" y1="924.3" x2="1160.5" y2="690.5"/>
			
				<line fill="none" stroke="#E1DAFA" stroke-width="1.4768" stroke-miterlimit="10" x1="1173.3" y1="924.3" x2="1173.3" y2="690.5"/>
		</g>
	</g>
	<g>
		<path fill="#FFFFFF" d="M972,642.9h216.9V408.6H972V642.9z M987.1,632.4c0,2.6-2.1,4.7-4.6,4.7c-2.6,0-4.7-2.1-4.7-4.7
			c0-2.6,2.1-4.6,4.7-4.6C985,627.7,987.1,629.8,987.1,632.4z M987.1,615.9c0,2.6-2.1,4.6-4.6,4.6c-2.6,0-4.7-2.1-4.7-4.6
			c0-2.6,2.1-4.7,4.7-4.7C985,611.2,987.1,613.3,987.1,615.9z M987.1,599.4c0,2.6-2.1,4.6-4.6,4.6c-2.6,0-4.7-2.1-4.7-4.6
			c0-2.6,2.1-4.6,4.7-4.6C985,594.7,987.1,596.8,987.1,599.4z M987.1,582.9c0,2.6-2.1,4.7-4.6,4.7c-2.6,0-4.7-2.1-4.7-4.7
			c0-2.6,2.1-4.6,4.7-4.6C985,578.2,987.1,580.3,987.1,582.9z M987.1,566.4c0,2.6-2.1,4.6-4.6,4.6c-2.6,0-4.7-2.1-4.7-4.6
			c0-2.6,2.1-4.6,4.7-4.6C985,561.7,987.1,563.8,987.1,566.4z M987.1,549.9c0,2.6-2.1,4.6-4.6,4.6c-2.6,0-4.7-2.1-4.7-4.6
			c0-2.6,2.1-4.7,4.7-4.7C985,545.2,987.1,547.3,987.1,549.9z M987.1,533.4c0,2.6-2.1,4.6-4.6,4.6c-2.6,0-4.7-2.1-4.7-4.6
			c0-2.6,2.1-4.6,4.7-4.6C985,528.7,987.1,530.8,987.1,533.4z M987.1,516.9c0,2.6-2.1,4.6-4.6,4.6c-2.6,0-4.7-2.1-4.7-4.6
			c0-2.6,2.1-4.7,4.7-4.7C985,512.2,987.1,514.3,987.1,516.9z M987.1,500.4c0,2.6-2.1,4.6-4.6,4.6c-2.6,0-4.7-2.1-4.7-4.6
			c0-2.6,2.1-4.6,4.7-4.6C985,495.7,987.1,497.8,987.1,500.4z M987.1,483.9c0,2.6-2.1,4.6-4.6,4.6c-2.6,0-4.7-2.1-4.7-4.6
			c0-2.6,2.1-4.6,4.7-4.6C985,479.2,987.1,481.3,987.1,483.9z M987.1,467.4c0,2.6-2.1,4.7-4.6,4.7c-2.6,0-4.7-2.1-4.7-4.7
			s2.1-4.6,4.7-4.6C985,462.7,987.1,464.8,987.1,467.4z M987.1,450.9c0,2.6-2.1,4.6-4.6,4.6c-2.6,0-4.7-2.1-4.7-4.6
			c0-2.6,2.1-4.7,4.7-4.7C985,446.2,987.1,448.3,987.1,450.9z M987.1,434.4c0,2.6-2.1,4.6-4.6,4.6c-2.6,0-4.7-2.1-4.7-4.6
			c0-2.6,2.1-4.6,4.7-4.6C985,429.7,987.1,431.8,987.1,434.4z M987.1,417.9c0,2.6-2.1,4.6-4.6,4.6c-2.6,0-4.7-2.1-4.7-4.6
			s2.1-4.6,4.7-4.6C985,413.2,987.1,415.3,987.1,417.9z"/>
		<g>
			
				<line fill="none" stroke="#E1DAFA" stroke-width="1.4768" stroke-miterlimit="10" x1="1019.8" y1="642.8" x2="1019.8" y2="408.9"/>
			
				<line fill="none" stroke="#E1DAFA" stroke-width="1.4768" stroke-miterlimit="10" x1="1032.6" y1="642.8" x2="1032.6" y2="408.9"/>
			
				<line fill="none" stroke="#E1DAFA" stroke-width="1.4768" stroke-miterlimit="10" x1="1045.4" y1="642.8" x2="1045.4" y2="408.9"/>
			
				<line fill="none" stroke="#E1DAFA" stroke-width="1.4768" stroke-miterlimit="10" x1="1058.2" y1="642.8" x2="1058.2" y2="408.9"/>
			<line fill="none" stroke="#E1DAFA" stroke-width="1.4768" stroke-miterlimit="10" x1="1071" y1="642.8" x2="1071" y2="408.9"/>
			
				<line fill="none" stroke="#E1DAFA" stroke-width="1.4768" stroke-miterlimit="10" x1="1083.7" y1="642.8" x2="1083.7" y2="408.9"/>
			
				<line fill="none" stroke="#E1DAFA" stroke-width="1.4768" stroke-miterlimit="10" x1="1096.5" y1="642.8" x2="1096.5" y2="408.9"/>
			
				<line fill="none" stroke="#E1DAFA" stroke-width="1.4768" stroke-miterlimit="10" x1="1109.3" y1="642.8" x2="1109.3" y2="408.9"/>
			
				<line fill="none" stroke="#E1DAFA" stroke-width="1.4768" stroke-miterlimit="10" x1="1122.1" y1="642.8" x2="1122.1" y2="408.9"/>
			
				<line fill="none" stroke="#E1DAFA" stroke-width="1.4768" stroke-miterlimit="10" x1="1134.9" y1="642.8" x2="1134.9" y2="408.9"/>
			
				<line fill="none" stroke="#E1DAFA" stroke-width="1.4768" stroke-miterlimit="10" x1="1147.7" y1="642.8" x2="1147.7" y2="408.9"/>
			
				<line fill="none" stroke="#E1DAFA" stroke-width="1.4768" stroke-miterlimit="10" x1="1160.5" y1="642.8" x2="1160.5" y2="408.9"/>
			
				<line fill="none" stroke="#E1DAFA" stroke-width="1.4768" stroke-miterlimit="10" x1="1173.3" y1="642.8" x2="1173.3" y2="408.9"/>
		</g>
	</g>
	<g>
		
			<rect x="193.7" y="98.5" transform="matrix(0.9983 5.822334e-002 -5.822334e-002 0.9983 14.7983 -19.4651)" fill="#F2F2F2" width="295.4" height="291.4"/>
		<rect x="185.2" y="88" fill="#FFFFFF" width="295.4" height="291.4"/>
		<g>
			<g>
				
					<linearGradient id="SVGID_1_" gradientUnits="userSpaceOnUse" x1="388.2358" y1="-145.2593" x2="388.2358" y2="-178.8038" gradientTransform="matrix(1 -9.000000e-004 9.000000e-004 1 -58.3447 253.6445)">
					<stop  offset="0" style="stop-color:#000000"/>
					<stop  offset="1" style="stop-color:#1A1A1A"/>
				</linearGradient>
				<polygon fill="url(#SVGID_1_)" points="358.3,75.4 356.3,110.4 302.4,110.4 301.1,75.7 				"/>
				
					<linearGradient id="SVGID_2_" gradientUnits="userSpaceOnUse" x1="387.8037" y1="-140.9077" x2="387.8037" y2="-147.7764" gradientTransform="matrix(1 -9.000000e-004 9.000000e-004 1 -58.3447 253.6445)">
					<stop  offset="0" style="stop-color:#000000"/>
					<stop  offset="1" style="stop-color:#1A1A1A"/>
				</linearGradient>
				<path fill="url(#SVGID_2_)" d="M357.2,109.1c0,1.2-1,2.2-2.2,2.2l-51.4,0c-1.2,0-2.2-1-2.2-2.2l0,0c0-1.2,1-2.2,2.2-2.2l51.4,0
					C356.2,106.9,357.2,107.9,357.2,109.1L357.2,109.1z"/>
			</g>
		</g>
		<path fill="#E6E6E6" d="M348.2,107.3l-2.4,0c-1.1-5.6-5.7-27.2-7-32.9c-0.3-1.2-0.6-2.2-0.9-3.3c-1.4-4.8-2.1-7.8,0.8-10.2
			c2.5-2.1,3.4-5.7,2.3-9.2c-1.1-3.4-4.6-7.1-10.8-7.4c0,0-8.6,0-11,7.6c-1.1,3.5-0.3,7.1,2.3,9.1c2.9,2.4,2.2,5.4,0.9,10.2
			c-0.3,1.1-0.6,2.1-0.9,3.3c-1.3,5.8-5.8,27.4-6.9,32.9l-2.4,0c-0.8,0-1.4,0.6-1.4,1.4c0,0.8,0.6,1.4,1.4,1.4l3.5,0
			c0.7,0,1.2-0.3,1.4-0.9c0.1-0.3,5.7-27.6,7.1-34.1c0.2-1.1,0.6-2.2,0.9-3.2c1.3-4.7,2.7-9.5-1.8-13.1c-1.6-1.3-2.2-3.8-1.4-6.2
			c1.1-3.3,4.2-5.3,8.3-5.6c4.1,0.2,7.2,2.3,8.3,5.5c0.8,2.4,0.3,4.8-1.4,6.2c-4.5,3.7-3.1,8.5-1.8,13.2c0.3,1.1,0.6,2.2,0.9,3.3
			c1.5,6.5,7.1,33.7,7.2,34c0.1,0.6,0.7,0.9,1.4,0.9l3.5,0c0.8,0,1.4-0.6,1.4-1.4C349.6,107.9,349,107.3,348.2,107.3z"/>
	</g>
</g>
</svg>
